Blinker-ExtraLight.ufo
<glyph name="exclam" format="1">
  <advance width="205"/>
  <unicode hex="0021"/>
  <outline>
    <contour>
      <point x="123" y="627" type="line"/>
      <point x="82" y="627" type="line"/>
      <point x="87" y="152" type="line"/>
      <point x="118" y="152" type="line"/>
    </contour>
    <contour>
      <point x="123" y="0" type="line"/>
      <point x="123" y="45" type="line"/>
      <point x="83" y="45" type="line"/>
      <point x="83" y="0" type="line"/>
    </contour>
  </outline>
</glyph>
<glyph name="quotedbl" format="1">
  <advance width="310"/>
  <unicode hex="0022"/>
  <outline>
    <contour>
      <point x="99" y="627" type="line"/>
      <point x="68" y="627" type="line"/>
      <point x="68" y="399" type="line"/>
      <point x="99" y="399" type="line"/>
    </contour>
    <contour>
      <point x="241" y="627" type="line"/>
      <point x="211" y="627" type="line"/>
      <point x="211" y="399" type="line"/>
      <point x="241" y="399" type="line"/>
    </contour>
  </outline>
</glyph>
<glyph name="ampersand" format="1">
  <advance width="739"/>
  <unicode hex="0026"/>
  <outline>
    <contour>
      <point x="507" y="63" type="line"/>
      <point x="473" y="43"/>
      <point x="419" y="29"/>
      <point x="329" y="29" type="curve" smooth="yes"/>
      <point x="156" y="29"/>
      <point x="96" y="129"/>
      <point x="96" y="330" type="curve"/>
      <point x="96" y="525"/>
      <point x="166" y="602"/>
      <point x="321" y="602" type="curve"/>
      <point x="426" y="602"/>
      <point x="477" y="549"/>
      <point x="477" y="477" type="curve" smooth="yes"/>
      <point x="477" y="362"/>
      <point x="373" y="310"/>
      <point x="86" y="308" type="curve"/>
      <point x="86" y="275" type="line"/>
      <point x="400" y="277"/>
      <point x="514" y="340"/>
      <point x="514" y="479" type="curve" smooth="yes"/>
      <point x="514" y="572"/>
      <point x="449" y="637"/>
      <point x="322" y="637" type="curve"/>
      <point x="145" y="637"/>
      <point x="59" y="544"/>
      <point x="59" y="328" type="curve"/>
      <point x="59" y="107"/>
      <point x="134" y="-7"/>
      <point x="329" y="-7" type="curve"/>
      <point x="437" y="-7"/>
      <point x="497" y="12"/>
      <point x="543" y="42" type="curve"/>
      <point x="543" y="300" type="line"/>
      <point x="715" y="300" type="line"/>
      <point x="715" y="332" type="line"/>
      <point x="507" y="332" type="line"/>
    </contour>
  </outline>
</glyph>
<glyph name="quotesingle" format="1">
  <advance width="168"/>
  <unicode hex="0027"/>
  <outline>
    <contour>
      <point x="100" y="627" type="line"/>
      <point x="68" y="627" type="line"/>
      <point x="68" y="399" type="line"/>
      <point x="100" y="399" type="line"/>
    </contour>
  </outline>
</glyph>
<glyph name="asterisk" format="1">
  <advance width="402"/>
  <unicode hex="002A"/>
  <outline>
    <contour>
      <point x="198" y="452" type="line"/>
      <point x="206" y="476" type="line"/>
      <point x="52" y="533" type="line"/>
      <point x="41" y="502" type="line"/>
    </contour>
    <contour>
      <point x="211" y="456" type="line"/>
      <point x="191" y="471" type="line"/>
      <point x="90" y="343" type="line"/>
      <point x="116" y="323" type="line"/>
    </contour>
    <contour>
      <point x="211" y="471" type="line"/>
      <point x="191" y="457" type="line"/>
      <point x="281" y="321" type="line"/>
      <point x="309" y="340" type="line"/>
    </contour>
    <contour>
      <point x="196" y="476" type="line"/>
      <point x="204" y="452" type="line"/>
      <point x="362" y="498" type="line"/>
      <point x="352" y="530" type="line"/>
    </contour>
    <contour>
      <point x="188" y="464" type="line"/>
      <point x="214" y="464" type="line"/>
      <point x="218" y="627" type="line"/>
      <point x="184" y="627" type="line"/>
    </contour>
  </outline>
</glyph>
<glyph name="plus" format="1">
  <advance width="500"/>
  <unicode hex="002B"/>
  <outline>
    <contour>
      <point x="463" y="305" type="line"/>
      <point x="463" y="339" type="line"/>
      <point x="37" y="339" type="line"/>
      <point x="37" y="305" type="line"/>
    </contour>
    <contour>
      <point x="269" y="532" type="line"/>
      <point x="233" y="532" type="line"/>
      <point x="233" y="110" type="line"/>
      <point x="269" y="110" type="line"/>
    </contour>
  </outline>
</glyph>
<glyph name="comma" format="1">
  <advance width="154"/>
  <unicode hex="002C"/>
  <outline>
    <contour>
      <point x="79" y="-88" type="curve" smooth="yes"/>
      <point x="101" y="50" type="line"/>
      <point x="60" y="50" type="line"/>
      <point x="51" y="-107" type="line"/>
      <point x="60" y="-107" type="line" smooth="yes"/>
      <point x="73" y="-107"/>
      <point x="77" y="-102"/>
    </contour>
  </outline>
</glyph>
<glyph name="two" format="1">
  <advance width="449"/>
  <unicode hex="0032"/>
  <outline>
    <contour>
      <point x="403" y="0" type="line"/>
      <point x="403" y="35" type="line"/>
      <point x="77" y="35" type="line"/>
      <point x="299" y="291" type="line" smooth="yes"/>
      <point x="351" y="352"/>
      <point x="388" y="409"/>
      <point x="388" y="486" type="curve"/>
      <point x="388" y="578"/>
      <point x="337" y="637"/>
      <point x="227" y="637" type="curve"/>
      <point x="168" y="637"/>
      <point x="115" y="629"/>
      <point x="63" y="615" type="curve"/>
      <point x="63" y="580" type="line"/>
      <point x="105" y="594"/>
      <point x="171" y="602"/>
      <point x="225" y="602" type="curve"/>
      <point x="311" y="602"/>
      <point x="350" y="555"/>
      <point x="350" y="483" type="curve"/>
      <point x="350" y="416"/>
      <point x="316" y="362"/>
      <point x="268" y="308" type="curve" smooth="yes"/>
      <point x="32" y="35" type="line"/>
      <point x="32" y="0" type="line"/>
    </contour>
  </outline>
</glyph>
<glyph name="three" format="1">
  <advance width="467"/>
  <unicode hex="0033"/>
  <outline>
    <contour>
      <point x="270" y="329" type="line"/>
      <point x="319" y="343"/>
      <point x="380" y="384"/>
      <point x="380" y="482" type="curve"/>
      <point x="380" y="582"/>
      <point x="328" y="637"/>
      <point x="219" y="637" type="curve"/>
      <point x="148" y="637"/>
      <point x="99" y="627"/>
      <point x="63" y="615" type="curve"/>
      <point x="63" y="582" type="line"/>
      <point x="95" y="592"/>
      <point x="149" y="602"/>
      <point x="213" y="602" type="curve"/>
      <point x="305" y="602"/>
      <point x="344" y="560"/>
      <point x="344" y="478" type="curve"/>
      <point x="344" y="377"/>
      <point x="269" y="339"/>
      <point x="196" y="339" type="curve"/>
      <point x="121" y="339" type="line"/>
      <point x="121" y="306" type="line"/>
      <point x="214" y="306" type="line"/>
      <point x="332" y="306"/>
      <point x="373" y="259"/>
      <point x="373" y="172" type="curve"/>
      <point x="373" y="80"/>
      <point x="317" y="29"/>
      <point x="202" y="29" type="curve"/>
      <point x="119" y="29"/>
      <point x="78" y="36"/>
      <point x="40" y="47" type="curve"/>
      <point x="40" y="12" type="line"/>
      <point x="74" y="1"/>
      <point x="116" y="-7"/>
      <point x="205" y="-7" type="curve"/>
      <point x="340" y="-7"/>
      <point x="410" y="58"/>
      <point x="410" y="171" type="curve"/>
      <point x="410" y="272"/>
      <point x="355" y="322"/>
      <point x="270" y="327" type="curve"/>
    </contour>
  </outline>
</glyph>
<glyph name="four" format="1">
  <advance width="519"/>
  <unicode hex="0034"/>
  <outline>
    <contour>
      <point x="487" y="182" type="line"/>
      <point x="487" y="216" type="line"/>
      <point x="388" y="216" type="line"/>
      <point x="388" y="517" type="line"/>
      <point x="351" y="517" type="line"/>
      <point x="351" y="216" type="line"/>
      <point x="82" y="216" type="line"/>
      <point x="161" y="627" type="line"/>
      <point x="124" y="627" type="line"/>
      <point x="45" y="215" type="line"/>
      <point x="45" y="182" type="line"/>
      <point x="351" y="182" type="line"/>
      <point x="351" y="0" type="line"/>
      <point x="388" y="0" type="line"/>
      <point x="388" y="182" type="line"/>
    </contour>
  </outline>
</glyph>
<glyph name="nine" format="1">
  <advance width="520"/>
  <unicode hex="0039"/>
  <outline>
    <contour>
      <point x="457" y="333" type="curve"/>
      <point x="457" y="562"/>
      <point x="399" y="637"/>
      <point x="254" y="637" type="curve"/>
      <point x="124" y="637"/>
      <point x="46" y="562"/>
      <point x="46" y="431" type="curve"/>
      <point x="46" y="295"/>
      <point x="109" y="243"/>
      <point x="228" y="243" type="curve"/>
      <point x="310" y="243"/>
      <point x="375" y="270"/>
      <point x="432" y="312" type="curve"/>
      <point x="432" y="344" type="line"/>
      <point x="375" y="302"/>
      <point x="310" y="276"/>
      <point x="242" y="276" type="curve"/>
      <point x="131" y="276"/>
      <point x="83" y="317"/>
      <point x="83" y="432" type="curve"/>
      <point x="83" y="540"/>
      <point x="141" y="602"/>
      <point x="254" y="602" type="curve"/>
      <point x="376" y="602"/>
      <point x="420" y="536"/>
      <point x="420" y="335" type="curve"/>
      <point x="420" y="119"/>
      <point x="372" y="29"/>
      <point x="196" y="29" type="curve"/>
      <point x="161" y="29"/>
      <point x="134" y="32"/>
      <point x="116" y="35" type="curve"/>
      <point x="116" y="0" type="line"/>
      <point x="131" y="-3"/>
      <point x="166" y="-7"/>
      <point x="196" y="-7" type="curve"/>
      <point x="394" y="-7"/>
      <point x="457" y="99"/>
    </contour>
  </outline>
</glyph>
<glyph name="E" format="1">
  <advance width="534"/>
  <unicode hex="0045"/>
  <outline>
    <contour>
      <point x="493" y="0" type="line"/>
      <point x="493" y="35" type="line"/>
      <point x="125" y="35" type="line"/>
      <point x="125" y="305" type="line"/>
      <point x="447" y="305" type="line"/>
      <point x="447" y="339" type="line"/>
      <point x="125" y="339" type="line"/>
      <point x="125" y="592" type="line"/>
      <point x="484" y="592" type="line"/>
      <point x="484" y="627" type="line"/>
      <point x="88" y="627" type="line"/>
      <point x="88" y="0" type="line"/>
    </contour>
    <contour>
      <point x="292" y="645" type="move" name="top"/>
    </contour>
    <contour>
      <point x="429" y="0" type="move" name="ogonek"/>
    </contour>
  </outline>
</glyph>
<glyph name="F" format="1">
  <advance width="506"/>
  <unicode hex="0046"/>
  <outline>
    <contour>
      <point x="125" y="0" type="line"/>
      <point x="125" y="280" type="line"/>
      <point x="438" y="280" type="line"/>
      <point x="438" y="314" type="line"/>
      <point x="125" y="314" type="line"/>
      <point x="125" y="592" type="line"/>
      <point x="475" y="592" type="line"/>
      <point x="475" y="627" type="line"/>
      <point x="88" y="627" type="line"/>
      <point x="88" y="0" type="line"/>
    </contour>
  </outline>
</glyph>
<glyph name="J" format="1">
  <advance width="441"/>
  <unicode hex="004A"/>
  <outline>
    <contour>
      <point x="321" y="627" type="line"/>
      <point x="321" y="227" type="line" smooth="yes"/>
      <point x="321" y="83"/>
      <point x="265" y="29"/>
      <point x="135" y="29" type="curve"/>
      <point x="81" y="29"/>
      <point x="47" y="37"/>
      <point x="24" y="43" type="curve"/>
      <point x="24" y="8" type="line"/>
      <point x="46" y="2"/>
      <point x="81" y="-7"/>
      <point x="141" y="-7" type="curve"/>
      <point x="286" y="-7"/>
      <point x="358" y="59"/>
      <point x="358" y="225" type="curve" smooth="yes"/>
      <point x="358" y="627" type="line"/>
    </contour>
    <contour>
      <point x="339" y="645" type="move" name="top"/>
    </contour>
  </outline>
</glyph>
<glyph name="K" format="1">
  <advance width="569"/>
  <unicode hex="004B"/>
  <outline>
    <contour>
      <point x="555" y="0" type="line"/>
      <point x="267" y="320" type="line"/>
      <point x="544" y="627" type="line"/>
      <point x="494" y="627" type="line"/>
      <point x="234" y="335" type="line"/>
      <point x="125" y="335" type="line"/>
      <point x="125" y="627" type="line"/>
      <point x="88" y="627" type="line"/>
      <point x="88" y="0" type="line"/>
      <point x="125" y="0" type="line"/>
      <point x="125" y="301" type="line"/>
      <point x="234" y="301" type="line"/>
      <point x="504" y="0" type="line"/>
    </contour>
    <contour>
      <point x="277" y="0" type="move" name="bottom"/>
    </contour>
  </outline>
</glyph>
<glyph name="L" format="1">
  <advance width="483"/>
  <unicode hex="004C"/>
  <outline>
    <contour>
      <point x="461" y="0" type="line"/>
      <point x="461" y="35" type="line"/>
      <point x="125" y="35" type="line"/>
      <point x="125" y="627" type="line"/>
      <point x="88" y="627" type="line"/>
      <point x="88" y="0" type="line"/>
    </contour>
    <contour>
      <point x="107" y="645" type="move" name="top"/>
    </contour>
    <contour>
      <point x="357" y="627" type="move" name="caronalt"/>
    </contour>
    <contour>
      <point x="282" y="0" type="move" name="bottom"/>
    </contour>
  </outline>
</glyph>
<glyph name="O" format="1">
  <advance width="659"/>
  <unicode hex="004F"/>
  <outline>
    <contour>
      <point x="330" y="-7" type="curve"/>
      <point x="513" y="-7"/>
      <point x="599" y="80"/>
      <point x="599" y="316" type="curve"/>
      <point x="599" y="572"/>
      <point x="526" y="637"/>
      <point x="330" y="637" type="curve"/>
      <point x="147" y="637"/>
      <point x="60" y="551"/>
      <point x="60" y="316" type="curve"/>
      <point x="60" y="58"/>
      <point x="132" y="-7"/>
    </contour>
    <contour>
      <point x="330" y="29" type="curve" smooth="yes"/>
      <point x="156" y="29"/>
      <point x="98" y="78"/>
      <point x="98" y="316" type="curve"/>
      <point x="98" y="534"/>
      <point x="169" y="602"/>
      <point x="330" y="602" type="curve"/>
      <point x="503" y="602"/>
      <point x="561" y="556"/>
      <point x="561" y="316" type="curve"/>
      <point x="561" y="100"/>
      <point x="490" y="29"/>
    </contour>
    <contour>
      <point x="330" y="655" type="move" name="top"/>
    </contour>
  </outline>
</glyph>
<glyph name="Q" format="1">
  <advance width="659"/>
  <unicode hex="0051"/>
  <outline>
    <contour>
      <point x="400" y="27" type="line"/>
      <point x="518" y="-128" type="line"/>
      <point x="564" y="-128" type="line"/>
      <point x="444" y="27" type="line"/>
    </contour>
    <component base="O"/>
  </outline>
</glyph>
<glyph name="R" format="1">
  <advance width="580"/>
  <unicode hex="0052"/>
  <outline>
    <contour>
      <point x="293" y="242" type="line" smooth="yes"/>
      <point x="443" y="242"/>
      <point x="526" y="300"/>
      <point x="526" y="441" type="curve"/>
      <point x="526" y="574"/>
      <point x="454" y="627"/>
      <point x="290" y="627" type="curve" smooth="yes"/>
      <point x="109" y="627" type="line"/>
      <point x="109" y="592" type="line"/>
      <point x="290" y="592" type="line" smooth="yes"/>
      <point x="427" y="592"/>
      <point x="488" y="551"/>
      <point x="488" y="441" type="curve"/>
      <point x="488" y="320"/>
      <point x="418" y="276"/>
      <point x="290" y="276" type="curve" smooth="yes"/>
      <point x="109" y="276" type="line"/>
      <point x="109" y="242" type="line"/>
    </contour>
    <contour>
      <point x="125" y="0" type="line"/>
      <point x="125" y="627" type="line"/>
      <point x="88" y="627" type="line"/>
      <point x="88" y="0" type="line"/>
    </contour>
    <contour>
      <point x="319" y="253" type="line"/>
      <point x="494" y="0" type="line"/>
      <point x="539" y="0" type="line"/>
      <point x="361" y="253" type="line"/>
    </contour>
    <contour>
      <point x="291" y="645" type="move" name="top"/>
    </contour>
    <contour>
      <point x="285" y="0" type="move" name="bottom"/>
    </contour>
  </outline>
</glyph>
<glyph name="S" format="1">
  <advance width="517"/>
  <unicode hex="0053"/>
  <outline>
    <contour>
      <point x="166" y="324" type="curve" smooth="yes"/>
      <point x="335" y="284" type="line" smooth="yes"/>
      <point x="413" y="265"/>
      <point x="435" y="241"/>
      <point x="435" y="172" type="curve"/>
      <point x="435" y="78"/>
      <point x="411" y="29"/>
      <point x="262" y="29" type="curve"/>
      <point x="163" y="29"/>
      <point x="92" y="47"/>
      <point x="53" y="59" type="curve"/>
      <point x="53" y="24" type="line"/>
      <point x="86" y="11"/>
      <point x="163" y="-7"/>
      <point x="262" y="-7" type="curve"/>
      <point x="439" y="-7"/>
      <point x="474" y="64"/>
      <point x="474" y="171" type="curve"/>
      <point x="474" y="266"/>
      <point x="439" y="297"/>
      <point x="348" y="319" type="curve" smooth="yes"/>
      <point x="179" y="360" type="line" smooth="yes"/>
      <point x="111" y="377"/>
      <point x="91" y="410"/>
      <point x="91" y="469" type="curve"/>
      <point x="91" y="564"/>
      <point x="139" y="602"/>
      <point x="270" y="602" type="curve" smooth="yes"/>
      <point x="338" y="602"/>
      <point x="391" y="593"/>
      <point x="426" y="584" type="curve"/>
      <point x="426" y="619" type="line"/>
      <point x="391" y="629"/>
      <point x="343" y="637"/>
      <point x="271" y="637" type="curve" smooth="yes"/>
      <point x="118" y="637"/>
      <point x="54" y="584"/>
      <point x="54" y="467" type="curve"/>
      <point x="54" y="383"/>
      <point x="90" y="342"/>
    </contour>
    <contour>
      <point x="263" y="655" type="move" name="top"/>
    </contour>
    <contour>
      <point x="247" y="0" type="move" name="bottom"/>
    </contour>
  </outline>
</glyph>
<glyph name="U" format="1">
  <advance width="641"/>
  <unicode hex="0055"/>
  <outline>
    <contour>
      <point x="521" y="627" type="line"/>
      <point x="521" y="241" type="line" smooth="yes"/>
      <point x="521" y="94"/>
      <point x="469" y="29"/>
      <point x="317" y="29" type="curve"/>
      <point x="168" y="29"/>
      <point x="120" y="95"/>
      <point x="120" y="241" type="curve" smooth="yes"/>
      <point x="120" y="627" type="line"/>
      <point x="82" y="627" type="line"/>
      <point x="82" y="241" type="line" smooth="yes"/>
      <point x="82" y="78"/>
      <point x="146" y="-7"/>
      <point x="317" y="-7" type="curve"/>
      <point x="494" y="-7"/>
      <point x="559" y="79"/>
      <point x="559" y="241" type="curve" smooth="yes"/>
      <point x="559" y="627" type="line"/>
    </contour>
    <contour>
      <point x="316" y="645" type="move" name="top"/>
    </contour>
    <contour>
      <point x="447" y="17" type="move" name="ogonekalt"/>
    </contour>
  </outline>
</glyph>
<glyph name="W" format="1">
  <advance width="863"/>
  <unicode hex="0057"/>
  <outline>
    <contour>
      <point x="442" y="627" type="curve"/>
      <point x="412" y="627" type="line"/>
      <point x="264" y="171" type="line" smooth="yes"/>
      <point x="247" y="118"/>
      <point x="234" y="59"/>
      <point x="217" y="0" type="curve"/>
      <point x="246" y="0" type="line"/>
      <point x="391" y="435" type="line" smooth="yes"/>
      <point x="412" y="500"/>
      <point x="428" y="563"/>
    </contour>
    <contour>
      <point x="25" y="627" type="line"/>
      <point x="205" y="0" type="line"/>
      <point x="235" y="0" type="line"/>
      <point x="221" y="59"/>
      <point x="210" y="117"/>
      <point x="194" y="171" type="curve" smooth="yes"/>
      <point x="65" y="627" type="line"/>
    </contour>
    <contour>
      <point x="838" y="627" type="line"/>
      <point x="799" y="627" type="line"/>
      <point x="671" y="171" type="line" smooth="yes"/>
      <point x="655" y="117"/>
      <point x="643" y="59"/>
      <point x="629" y="0" type="curve"/>
      <point x="658" y="0" type="line"/>
    </contour>
    <contour>
      <point x="421" y="627" type="line"/>
      <point x="435" y="563"/>
      <point x="451" y="500"/>
      <point x="472" y="435" type="curve" smooth="yes"/>
      <point x="617" y="0" type="line"/>
      <point x="647" y="0" type="line"/>
      <point x="630" y="59"/>
      <point x="617" y="118"/>
      <point x="600" y="171" type="curve" smooth="yes"/>
      <point x="451" y="627" type="line"/>
    </contour>
    <contour>
      <point x="432" y="645" type="move" name="top"/>
    </contour>
  </outline>
</glyph>
<glyph name="Y" format="1">
  <advance width="566"/>
  <unicode hex="0059"/>
  <outline>
    <contour>
      <point x="545" y="627" type="line"/>
      <point x="506" y="627" type="line"/>
      <point x="285" y="280" type="line"/>
      <point x="58" y="627" type="line"/>
      <point x="17" y="627" type="line"/>
      <point x="265" y="245" type="line"/>
      <point x="265" y="0" type="line"/>
      <point x="303" y="0" type="line"/>
      <point x="303" y="245" type="line"/>
    </contour>
    <contour>
      <point x="285" y="645" type="move" name="top"/>
    </contour>
  </outline>
</glyph>
<glyph name="b" format="1">
  <advance width="543"/>
  <unicode hex="0062"/>
  <outline>
    <contour>
      <point x="79" y="18" type="line"/>
      <point x="115" y="17" type="line"/>
      <point x="115" y="665" type="line"/>
      <point x="79" y="665" type="line"/>
    </contour>
    <contour>
      <point x="111" y="416" type="line"/>
      <point x="160" y="454"/>
      <point x="221" y="471"/>
      <point x="281" y="471" type="curve"/>
      <point x="394" y="471"/>
      <point x="450" y="426"/>
      <point x="450" y="249" type="curve" smooth="yes"/>
      <point x="450" y="72"/>
      <point x="388" y="27"/>
      <point x="248" y="27" type="curve"/>
      <point x="188" y="27"/>
      <point x="138" y="36"/>
      <point x="104" y="49" type="curve"/>
      <point x="79" y="18" type="line"/>
      <point x="120" y="4"/>
      <point x="177" y="-7"/>
      <point x="250" y="-7" type="curve"/>
      <point x="411" y="-7"/>
      <point x="486" y="54"/>
      <point x="486" y="249" type="curve" smooth="yes"/>
      <point x="486" y="444"/>
      <point x="418" y="504"/>
      <point x="292" y="504" type="curve"/>
      <point x="224" y="504"/>
      <point x="161" y="486"/>
      <point x="107" y="447" type="curve"/>
    </contour>
  </outline>
</glyph>
<glyph name="d" format="1">
  <advance width="544"/>
  <unicode hex="0064"/>
  <outline>
    <contour>
      <point x="464" y="665" type="line"/>
      <point x="428" y="665" type="line"/>
      <point x="428" y="49" type="line"/>
      <point x="431" y="49" type="line"/>
      <point x="434" y="0" type="line"/>
      <point x="464" y="0" type="line"/>
    </contour>
    <contour>
      <point x="432" y="82" type="line"/>
      <point x="383" y="43"/>
      <point x="324" y="27"/>
      <point x="262" y="27" type="curve"/>
      <point x="149" y="27"/>
      <point x="93" y="72"/>
      <point x="93" y="249" type="curve" smooth="yes"/>
      <point x="93" y="426"/>
      <point x="155" y="471"/>
      <point x="295" y="471" type="curve"/>
      <point x="360" y="471"/>
      <point x="404" y="459"/>
      <point x="438" y="442" type="curve"/>
      <point x="451" y="469" type="line"/>
      <point x="414" y="489"/>
      <point x="366" y="504"/>
      <point x="292" y="504" type="curve"/>
      <point x="132" y="504"/>
      <point x="57" y="444"/>
      <point x="57" y="249" type="curve" smooth="yes"/>
      <point x="57" y="54"/>
      <point x="125" y="-7"/>
      <point x="251" y="-7" type="curve"/>
      <point x="320" y="-7"/>
      <point x="385" y="9"/>
      <point x="438" y="58" type="curve"/>
    </contour>
    <contour>
      <point x="549" y="665" type="move" name="caronalt"/>
    </contour>
  </outline>
</glyph>
<glyph name="e" format="1">
  <advance width="502"/>
  <unicode hex="0065"/>
  <outline>
    <contour>
      <point x="264" y="471" type="curve"/>
      <point x="379" y="471"/>
      <point x="416" y="412"/>
      <point x="416" y="304" type="curve"/>
      <point x="416" y="290"/>
      <point x="415" y="279"/>
      <point x="415" y="271" type="curve"/>
      <point x="93" y="271" type="line"/>
      <point x="93" y="412"/>
      <point x="140" y="471"/>
    </contour>
    <contour>
      <point x="430" y="27" type="curve"/>
      <point x="430" y="60" type="line"/>
      <point x="401" y="46"/>
      <point x="336" y="27"/>
      <point x="272" y="27" type="curve" smooth="yes"/>
      <point x="154" y="27"/>
      <point x="93" y="74"/>
      <point x="93" y="239" type="curve"/>
      <point x="446" y="239" type="line"/>
      <point x="449" y="258"/>
      <point x="451" y="278"/>
      <point x="451" y="301" type="curve"/>
      <point x="451" y="444"/>
      <point x="394" y="504"/>
      <point x="264" y="504" type="curve"/>
      <point x="122" y="504"/>
      <point x="57" y="434"/>
      <point x="57" y="251" type="curve" smooth="yes"/>
      <point x="57" y="62"/>
      <point x="120" y="-7"/>
      <point x="265" y="-7" type="curve" smooth="yes"/>
      <point x="339" y="-7"/>
      <point x="404" y="14"/>
    </contour>
    <contour>
      <point x="265" y="530" type="move" name="top"/>
    </contour>
    <contour>
      <point x="392" y="14" type="move" name="ogonekalt"/>
    </contour>
  </outline>
</glyph>
<glyph name="h" format="1">
  <advance width="552"/>
  <unicode hex="0068"/>
  <outline>
    <contour>
      <point x="80" y="0" type="line"/>
      <point x="116" y="0" type="line"/>
      <point x="116" y="665" type="line"/>
      <point x="80" y="665" type="line"/>
    </contour>
    <contour>
      <point x="106" y="412" type="line"/>
      <point x="168" y="448"/>
      <point x="234" y="471"/>
      <point x="300" y="471" type="curve" smooth="yes"/>
      <point x="396" y="471"/>
      <point x="440" y="429"/>
      <point x="440" y="339" type="curve" smooth="yes"/>
      <point x="440" y="0" type="line"/>
      <point x="476" y="0" type="line"/>
      <point x="476" y="342" type="line" smooth="yes"/>
      <point x="476" y="451"/>
      <point x="416" y="504"/>
      <point x="312" y="504" type="curve" smooth="yes"/>
      <point x="233" y="504"/>
      <point x="169" y="478"/>
      <point x="106" y="443" type="curve"/>
    </contour>
    <contour>
      <point x="99" y="680" type="move" name="top"/>
    </contour>
  </outline>
</glyph>
<glyph name="k" format="1">
  <advance width="479"/>
  <unicode hex="006B"/>
  <outline>
    <contour>
      <point x="412" y="0" type="line"/>
      <point x="461" y="0" type="line"/>
      <point x="224" y="253" type="line"/>
      <point x="179" y="251" type="line"/>
    </contour>
    <contour>
      <point x="404" y="494" type="line"/>
      <point x="179" y="251" type="line"/>
      <point x="224" y="253" type="line"/>
      <point x="451" y="494" type="line"/>
    </contour>
    <contour>
      <point x="105" y="233" type="line"/>
      <point x="209" y="233" type="line"/>
      <point x="209" y="266" type="line"/>
      <point x="105" y="266" type="line"/>
    </contour>
    <component base="l"/>
    <contour>
      <point x="247" y="0" type="move" name="bottom"/>
    </contour>
  </outline>
</glyph>
<glyph name="l" format="1">
  <advance width="196"/>
  <unicode hex="006C"/>
  <outline>
    <contour>
      <point x="116" y="0" type="line"/>
      <point x="116" y="665" type="line"/>
      <point x="80" y="665" type="line"/>
      <point x="80" y="0" type="line"/>
    </contour>
    <contour>
      <point x="98" y="680" type="move" name="top"/>
    </contour>
    <contour>
      <point x="201" y="665" type="move" name="caronalt"/>
    </contour>
    <contour>
      <point x="98" y="0" type="move" name="bottom"/>
    </contour>
  </outline>
</glyph>
<glyph name="p" format="1">
  <advance width="544"/>
  <unicode hex="0070"/>
  <outline>
    <contour>
      <point x="80" y="-152" type="line"/>
      <point x="116" y="-152" type="line"/>
      <point x="116" y="449" type="line"/>
      <point x="113" y="449" type="line"/>
      <point x="110" y="494" type="line"/>
      <point x="80" y="494" type="line"/>
    </contour>
    <contour>
      <point x="112" y="415" type="line"/>
      <point x="161" y="453"/>
      <point x="220" y="471"/>
      <point x="282" y="471" type="curve"/>
      <point x="395" y="471"/>
      <point x="451" y="425"/>
      <point x="451" y="249" type="curve" smooth="yes"/>
      <point x="451" y="71"/>
      <point x="389" y="27"/>
      <point x="249" y="27" type="curve"/>
      <point x="184" y="27"/>
      <point x="140" y="39"/>
      <point x="106" y="56" type="curve"/>
      <point x="93" y="29" type="line"/>
      <point x="130" y="8"/>
      <point x="177" y="-7"/>
      <point x="252" y="-7" type="curve"/>
      <point x="412" y="-7"/>
      <point x="487" y="53"/>
      <point x="487" y="249" type="curve" smooth="yes"/>
      <point x="487" y="443"/>
      <point x="419" y="504"/>
      <point x="293" y="504" type="curve"/>
      <point x="224" y="504"/>
      <point x="159" y="486"/>
      <point x="106" y="441" type="curve"/>
    </contour>
  </outline>
</glyph>
<glyph name="s" format="1">
  <advance width="446"/>
  <unicode hex="0073"/>
  <outline>
    <contour>
      <point x="93" y="360" type="curve" smooth="yes"/>
      <point x="93" y="430"/>
      <point x="114" y="471"/>
      <point x="235" y="471" type="curve" smooth="yes"/>
      <point x="296" y="471"/>
      <point x="341" y="465"/>
      <point x="368" y="461" type="curve"/>
      <point x="368" y="494" type="line"/>
      <point x="345" y="497"/>
      <point x="313" y="504"/>
      <point x="233" y="504" type="curve" smooth="yes"/>
      <point x="91" y="504"/>
      <point x="57" y="445"/>
      <point x="57" y="359" type="curve" smooth="yes"/>
      <point x="57" y="298"/>
      <point x="81" y="263"/>
      <point x="147" y="252" type="curve" smooth="yes"/>
      <point x="278" y="231" type="line" smooth="yes"/>
      <point x="344" y="220"/>
      <point x="366" y="201"/>
      <point x="366" y="141" type="curve" smooth="yes"/>
      <point x="366" y="55"/>
      <point x="324" y="27"/>
      <point x="232" y="27" type="curve" smooth="yes"/>
      <point x="145" y="27"/>
      <point x="80" y="41"/>
      <point x="49" y="53" type="curve"/>
      <point x="49" y="18" type="line"/>
      <point x="76" y="8"/>
      <point x="141" y="-7"/>
      <point x="236" y="-7" type="curve" smooth="yes"/>
      <point x="349" y="-7"/>
      <point x="402" y="35"/>
      <point x="402" y="142" type="curve" smooth="yes"/>
      <point x="402" y="222"/>
      <point x="374" y="251"/>
      <point x="291" y="264" type="curve" smooth="yes"/>
      <point x="159" y="285" type="line" smooth="yes"/>
      <point x="111" y="293"/>
      <point x="93" y="315"/>
    </contour>
    <contour>
      <point x="231" y="530" type="move" name="top"/>
    </contour>
    <contour>
      <point x="216" y="0" type="move" name="bottom"/>
    </contour>
  </outline>
</glyph>
<glyph name="u" format="1">
  <advance width="541"/>
  <unicode hex="0075"/>
  <outline>
    <contour>
      <point x="76" y="156" type="line" smooth="yes"/>
      <point x="76" y="47"/>
      <point x="133" y="-7"/>
      <point x="239" y="-7" type="curve" smooth="yes"/>
      <point x="309" y="-7"/>
      <point x="373" y="18"/>
      <point x="436" y="56" type="curve"/>
      <point x="436" y="86" type="line"/>
      <point x="376" y="50"/>
      <point x="315" y="27"/>
      <point x="251" y="27" type="curve" smooth="yes"/>
      <point x="154" y="27"/>
      <point x="112" y="69"/>
      <point x="112" y="159" type="curve" smooth="yes"/>
      <point x="112" y="494" type="line"/>
      <point x="76" y="494" type="line"/>
    </contour>
    <contour>
      <point x="461" y="494" type="line"/>
      <point x="425" y="494" type="line"/>
      <point x="425" y="50" type="line"/>
      <point x="427" y="50" type="line"/>
      <point x="430" y="0" type="line"/>
      <point x="461" y="0" type="line"/>
    </contour>
    <contour>
      <point x="268" y="520" type="move" name="top"/>
    </contour>
    <contour>
      <point x="461" y="0" type="move" name="ogonek"/>
    </contour>
  </outline>
</glyph>
<glyph name="w" format="1">
  <advance width="690"/>
  <unicode hex="0077"/>
  <outline>
    <contour>
      <point x="661" y="494" type="line"/>
      <point x="622" y="494" type="line"/>
      <point x="499" y="38" type="line"/>
      <point x="360" y="494" type="line"/>
      <point x="317" y="494" type="line"/>
      <point x="190" y="38" type="line"/>
      <point x="68" y="494" type="line"/>
      <point x="29" y="494" type="line"/>
      <point x="168" y="0" type="line"/>
      <point x="212" y="0" type="line"/>
      <point x="339" y="452" type="line"/>
      <point x="477" y="0" type="line"/>
      <point x="521" y="0" type="line"/>
    </contour>
    <contour>
      <point x="339" y="520" type="move" name="top"/>
    </contour>
  </outline>
</glyph>
<glyph name="x" format="1">
  <advance width="435"/>
  <unicode hex="0078"/>
  <outline>
    <contour>
      <point x="413" y="0" type="line"/>
      <point x="239" y="257" type="line"/>
      <point x="402" y="494" type="line"/>
      <point x="361" y="494" type="line"/>
      <point x="218" y="282" type="line"/>
      <point x="76" y="494" type="line"/>
      <point x="33" y="494" type="line"/>
      <point x="195" y="256" type="line"/>
      <point x="22" y="0" type="line"/>
      <point x="63" y="0" type="line"/>
      <point x="216" y="231" type="line"/>
      <point x="371" y="0" type="line"/>
    </contour>
    <contour>
      <point x="218" y="520" type="move" name="top"/>
    </contour>
  </outline>
</glyph>
<glyph name="y" format="1">
  <advance width="491"/>
  <unicode hex="0079"/>
  <outline>
    <contour>
      <point x="232" y="5" type="line"/>
      <point x="196" y="-88"/>
      <point x="182" y="-129"/>
      <point x="115" y="-129" type="curve"/>
      <point x="95" y="-129"/>
      <point x="75" y="-127"/>
      <point x="55" y="-122" type="curve"/>
      <point x="55" y="-155" type="line"/>
      <point x="76" y="-160"/>
      <point x="97" y="-162"/>
      <point x="119" y="-162" type="curve"/>
      <point x="199" y="-162"/>
      <point x="225" y="-111"/>
      <point x="249" y="-49" type="curve" smooth="yes"/>
      <point x="470" y="494" type="line"/>
      <point x="431" y="494" type="line"/>
      <point x="251" y="43" type="line"/>
      <point x="59" y="494" type="line"/>
      <point x="18" y="494" type="line"/>
    </contour>
    <contour>
      <point x="251" y="520" type="move" name="top"/>
    </contour>
  </outline>
</glyph>
<glyph name="z" format="1">
  <advance width="425"/>
  <unicode hex="007A"/>
  <outline>
    <contour>
      <point x="396" y="0" type="line"/>
      <point x="396" y="33" type="line"/>
      <point x="75" y="33" type="line"/>
      <point x="379" y="462" type="line"/>
      <point x="379" y="494" type="line"/>
      <point x="52" y="494" type="line"/>
      <point x="52" y="462" type="line"/>
      <point x="338" y="462" type="line"/>
      <point x="34" y="33" type="line"/>
      <point x="34" y="0" type="line"/>
    </contour>
    <contour>
      <point x="215" y="520" type="move" name="top"/>
    </contour>
  </outline>
</glyph>
<glyph name="braceleft" format="1">
  <advance width="292"/>
  <unicode hex="007B"/>
  <outline>
    <contour>
      <point x="68" y="317" type="line"/>
      <point x="112" y="325"/>
      <point x="150" y="370"/>
      <point x="150" y="473" type="curve" smooth="yes"/>
      <point x="150" y="581" type="line"/>
      <point x="150" y="648"/>
      <point x="186" y="687"/>
      <point x="265" y="687" type="curve"/>
      <point x="265" y="718" type="line"/>
      <point x="168" y="718"/>
      <point x="117" y="666"/>
      <point x="117" y="581" type="curve"/>
      <point x="117" y="473" type="line" smooth="yes"/>
      <point x="117" y="361"/>
      <point x="64" y="330"/>
      <point x="29" y="330" type="curve"/>
      <point x="19" y="330" type="line"/>
      <point x="19" y="300" type="line"/>
      <point x="29" y="300" type="line"/>
      <point x="64" y="300"/>
      <point x="117" y="269"/>
      <point x="117" y="157" type="curve" smooth="yes"/>
      <point x="117" y="45" type="line"/>
      <point x="117" y="-40"/>
      <point x="168" y="-92"/>
      <point x="265" y="-92" type="curve"/>
      <point x="265" y="-61" type="line"/>
      <point x="186" y="-61"/>
      <point x="150" y="-22"/>
      <point x="150" y="45" type="curve"/>
      <point x="150" y="157" type="line"/>
      <point x="150" y="259"/>
      <point x="112" y="307"/>
      <point x="68" y="315" type="curve"/>
    </contour>
  </outline>
</glyph>
<glyph name="asciitilde" format="1">
  <advance width="657"/>
  <unicode hex="007E"/>
  <outline>
    <contour>
      <point x="599" y="457" type="curve"/>
      <point x="565" y="457" type="line"/>
      <point x="565" y="374"/>
      <point x="544" y="276"/>
      <point x="465" y="276" type="curve"/>
      <point x="369" y="276"/>
      <point x="318" y="465"/>
      <point x="202" y="465" type="curve"/>
      <point x="90" y="465"/>
      <point x="58" y="350"/>
      <point x="58" y="249" type="curve"/>
      <point x="92" y="249" type="line"/>
      <point x="92" y="329"/>
      <point x="109" y="430"/>
      <point x="201" y="430" type="curve"/>
      <point x="299" y="430"/>
      <point x="347" y="241"/>
      <point x="464" y="241" type="curve"/>
      <point x="571" y="241"/>
      <point x="599" y="356"/>
    </contour>
  </outline>
</glyph>
<glyph name="cent" format="1">
  <advance width="450"/>
  <unicode hex="00A2"/>
  <outline>
    <contour>
      <point x="281" y="567" type="line"/>
      <point x="281" y="669" type="line"/>
      <point x="247" y="669" type="line"/>
      <point x="247" y="567" type="line"/>
    </contour>
    <contour>
      <point x="281" y="-23" type="line"/>
      <point x="281" y="86" type="line"/>
      <point x="247" y="86" type="line"/>
      <point x="247" y="-23" type="line"/>
    </contour>
    <component base="c" xOffset="-6" yOffset="76"/>
  </outline>
</glyph>
<glyph name="brokenbar" format="1">
  <advance width="204"/>
  <unicode hex="00A6"/>
  <outline>
    <contour>
      <point x="118" y="380" type="line"/>
      <point x="118" y="707" type="line"/>
      <point x="86" y="707" type="line"/>
      <point x="86" y="380" type="line"/>
    </contour>
    <contour>
      <point x="118" y="-80" type="line"/>
      <point x="118" y="247" type="line"/>
      <point x="86" y="247" type="line"/>
      <point x="86" y="-80" type="line"/>
    </contour>
  </outline>
</glyph>
<glyph name="section" format="1">
  <advance width="503"/>
  <unicode hex="00A7"/>
  <outline>
    <contour>
      <point x="136" y="463" type="line"/>
      <point x="82" y="432"/>
      <point x="41" y="390"/>
      <point x="41" y="333" type="curve"/>
      <point x="41" y="279"/>
      <point x="67" y="255"/>
      <point x="119" y="235" type="curve" smooth="yes"/>
      <point x="315" y="163" type="line" smooth="yes"/>
      <point x="369" y="143"/>
      <point x="389" y="126"/>
      <point x="389" y="93" type="curve"/>
      <point x="389" y="37"/>
      <point x="335" y="20"/>
      <point x="246" y="20" type="curve"/>
      <point x="185" y="19"/>
      <point x="129" y="29"/>
      <point x="92" y="42" type="curve"/>
      <point x="92" y="10" type="line"/>
      <point x="126" y="0"/>
      <point x="177" y="-10"/>
      <point x="250" y="-10" type="curve"/>
      <point x="369" y="-10"/>
      <point x="424" y="25"/>
      <point x="424" y="94" type="curve"/>
      <point x="424" y="140"/>
      <point x="400" y="165"/>
      <point x="335" y="189" type="curve" smooth="yes"/>
      <point x="137" y="263" type="line" smooth="yes"/>
      <point x="92" y="279"/>
      <point x="75" y="295"/>
      <point x="75" y="339" type="curve"/>
      <point x="75" y="386"/>
      <point x="113" y="421"/>
      <point x="163" y="448" type="curve"/>
    </contour>
    <contour>
      <point x="256" y="607" type="curve"/>
      <point x="318" y="608"/>
      <point x="374" y="598"/>
      <point x="411" y="585" type="curve"/>
      <point x="411" y="617" type="line"/>
      <point x="377" y="627"/>
      <point x="326" y="637"/>
      <point x="253" y="637" type="curve"/>
      <point x="134" y="637"/>
      <point x="80" y="602"/>
      <point x="80" y="533" type="curve"/>
      <point x="80" y="487"/>
      <point x="104" y="462"/>
      <point x="168" y="438" type="curve" smooth="yes"/>
      <point x="366" y="365" type="line" smooth="yes"/>
      <point x="411" y="348"/>
      <point x="429" y="332"/>
      <point x="429" y="288" type="curve"/>
      <point x="429" y="241"/>
      <point x="390" y="206"/>
      <point x="341" y="179" type="curve"/>
      <point x="367" y="164" type="line"/>
      <point x="421" y="195"/>
      <point x="462" y="237"/>
      <point x="462" y="294" type="curve"/>
      <point x="462" y="348"/>
      <point x="437" y="371"/>
      <point x="386" y="391" type="curve" smooth="yes"/>
      <point x="188" y="464" type="line" smooth="yes"/>
      <point x="135" y="484"/>
      <point x="114" y="501"/>
      <point x="114" y="534" type="curve"/>
      <point x="114" y="590"/>
      <point x="168" y="607"/>
    </contour>
  </outline>
</glyph>
<glyph name="dieresis" format="1">
  <advance width="313"/>
  <unicode hex="00A8"/>
  <outline>
    <contour>
      <point x="263" y="569" type="line"/>
      <point x="263" y="612" type="line"/>
      <point x="221" y="612" type="line"/>
      <point x="221" y="569" type="line"/>
    </contour>
    <contour>
      <point x="92" y="569" type="line"/>
      <point x="92" y="612" type="line"/>
      <point x="50" y="612" type="line"/>
      <point x="50" y="569" type="line"/>
    </contour>
    <contour>
      <point x="156" y="530" type="move" name="_top"/>
    </contour>
  </outline>
</glyph>
<glyph name="degree" format="1">
  <advance width="366"/>
  <unicode hex="00B0"/>
  <outline>
    <contour>
      <point x="183" y="366" type="curve" smooth="yes"/>
      <point x="262" y="366"/>
      <point x="316" y="417"/>
      <point x="316" y="500" type="curve" smooth="yes"/>
      <point x="316" y="581"/>
      <point x="262" y="634"/>
      <point x="183" y="634" type="curve" smooth="yes"/>
      <point x="104" y="634"/>
      <point x="51" y="581"/>
      <point x="51" y="500" type="curve" smooth="yes"/>
      <point x="51" y="417"/>
      <point x="104" y="366"/>
    </contour>
    <contour>
      <point x="183" y="394" type="curve" smooth="yes"/>
      <point x="122" y="394"/>
      <point x="80" y="434"/>
      <point x="80" y="500" type="curve" smooth="yes"/>
      <point x="80" y="564"/>
      <point x="122" y="606"/>
      <point x="183" y="606" type="curve" smooth="yes"/>
      <point x="244" y="606"/>
      <point x="287" y="564"/>
      <point x="287" y="500" type="curve" smooth="yes"/>
      <point x="287" y="434"/>
      <point x="244" y="394"/>
    </contour>
  </outline>
</glyph>
<glyph name="uni00B2" format="1">
  <advance width="296"/>
  <unicode hex="00B2"/>
  <outline>
    <contour>
      <point x="259" y="270" type="line"/>
      <point x="259" y="300" type="line"/>
      <point x="69" y="300" type="line"/>
      <point x="199" y="438" type="line" smooth="yes"/>
      <point x="231" y="471"/>
      <point x="250" y="503"/>
      <point x="250" y="545" type="curve"/>
      <point x="250" y="598"/>
      <point x="219" y="633"/>
      <point x="151" y="633" type="curve"/>
      <point x="115" y="633"/>
      <point x="80" y="629"/>
      <point x="48" y="620" type="curve"/>
      <point x="48" y="591" type="line"/>
      <point x="71" y="598"/>
      <point x="114" y="604"/>
      <point x="148" y="604" type="curve"/>
      <point x="197" y="604"/>
      <point x="218" y="579"/>
      <point x="218" y="543" type="curve"/>
      <point x="218" y="507"/>
      <point x="199" y="479"/>
      <point x="172" y="451" type="curve" smooth="yes"/>
      <point x="29" y="300" type="line"/>
      <point x="29" y="270" type="line"/>
    </contour>
  </outline>
</glyph>
<glyph name="uni00B3" format="1">
  <advance width="303"/>
  <unicode hex="00B3"/>
  <outline>
    <contour>
      <point x="178" y="459" type="line"/>
      <point x="209" y="466"/>
      <point x="244" y="492"/>
      <point x="244" y="544" type="curve"/>
      <point x="244" y="601"/>
      <point x="211" y="633"/>
      <point x="145" y="633" type="curve"/>
      <point x="100" y="633"/>
      <point x="69" y="627"/>
      <point x="47" y="620" type="curve"/>
      <point x="47" y="593" type="line"/>
      <point x="64" y="598"/>
      <point x="101" y="605"/>
      <point x="138" y="605" type="curve"/>
      <point x="191" y="605"/>
      <point x="214" y="583"/>
      <point x="214" y="540" type="curve"/>
      <point x="214" y="488"/>
      <point x="171" y="467"/>
      <point x="128" y="467" type="curve"/>
      <point x="83" y="467" type="line"/>
      <point x="83" y="440" type="line"/>
      <point x="140" y="440" type="line"/>
      <point x="206" y="440"/>
      <point x="231" y="416"/>
      <point x="231" y="370" type="curve"/>
      <point x="231" y="321"/>
      <point x="199" y="295"/>
      <point x="132" y="295" type="curve"/>
      <point x="87" y="295"/>
      <point x="60" y="298"/>
      <point x="34" y="305" type="curve"/>
      <point x="34" y="277" type="line"/>
      <point x="55" y="271"/>
      <point x="82" y="266"/>
      <point x="135" y="266" type="curve"/>
      <point x="218" y="266"/>
      <point x="261" y="302"/>
      <point x="261" y="369" type="curve"/>
      <point x="261" y="424"/>
      <point x="230" y="454"/>
      <point x="178" y="457" type="curve"/>
    </contour>
  </outline>
</glyph>
<glyph name="acute" format="1">
  <advance width="253"/>
  <unicode hex="00B4"/>
  <outline>
    <contour>
      <point x="203" y="683" type="line"/>
      <point x="151" y="683" type="line"/>
      <point x="50" y="569" type="line"/>
      <point x="86" y="569" type="line"/>
    </contour>
    <contour>
      <point x="99" y="530" type="move" name="_top"/>
    </contour>
  </outline>
</glyph>
<glyph name="paragraph" format="1">
  <advance width="489"/>
  <unicode hex="00B6"/>
  <outline>
    <contour>
      <point x="405" y="-1" type="curve" smooth="yes"/>
      <point x="405" y="627" type="line"/>
      <point x="380" y="632"/>
      <point x="343" y="639"/>
      <point x="277" y="639" type="curve"/>
      <point x="114" y="639"/>
      <point x="42" y="573"/>
      <point x="42" y="384" type="curve" smooth="yes"/>
      <point x="42" y="195"/>
      <point x="90" y="128"/>
      <point x="229" y="128" type="curve"/>
      <point x="289" y="128"/>
      <point x="338" y="140"/>
      <point x="369" y="152" type="curve"/>
      <point x="369" y="-1" type="line" smooth="yes"/>
      <point x="369" y="-86"/>
      <point x="337" y="-129"/>
      <point x="252" y="-129" type="curve"/>
      <point x="229" y="-129"/>
      <point x="209" y="-127"/>
      <point x="186" y="-123" type="curve"/>
      <point x="186" y="-156" type="line"/>
      <point x="208" y="-160"/>
      <point x="231" y="-162"/>
      <point x="261" y="-162" type="curve"/>
      <point x="357" y="-162"/>
      <point x="405" y="-107"/>
    </contour>
    <contour>
      <point x="78" y="384" type="curve" smooth="yes"/>
      <point x="78" y="552"/>
      <point x="136" y="605"/>
      <point x="277" y="605" type="curve"/>
      <point x="326" y="605"/>
      <point x="350" y="601"/>
      <point x="369" y="598" type="curve"/>
      <point x="369" y="186" type="line"/>
      <point x="340" y="175"/>
      <point x="290" y="162"/>
      <point x="237" y="162" type="curve"/>
      <point x="117" y="162"/>
      <point x="78" y="216"/>
    </contour>
  </outline>
</glyph>
<glyph name="ordmasculine" format="1">
  <advance width="398"/>
  <unicode hex="00BA"/>
  <outline>
    <contour>
      <point x="75" y="271" type="line"/>
      <point x="322" y="271" type="line"/>
      <point x="322" y="298" type="line"/>
      <point x="75" y="298" type="line"/>
    </contour>
    <contour>
      <point x="200" y="351" type="curve" smooth="yes"/>
      <point x="291" y="351"/>
      <point x="330" y="397"/>
      <point x="330" y="494" type="curve" smooth="yes"/>
      <point x="330" y="597"/>
      <point x="294" y="637"/>
      <point x="200" y="637" type="curve" smooth="yes"/>
      <point x="107" y="637"/>
      <point x="69" y="592"/>
      <point x="69" y="494" type="curve" smooth="yes"/>
      <point x="69" y="392"/>
      <point x="103" y="351"/>
    </contour>
    <contour>
      <point x="200" y="378" type="curve" smooth="yes"/>
      <point x="123" y="378"/>
      <point x="99" y="409"/>
      <point x="99" y="494" type="curve" smooth="yes"/>
      <point x="99" y="576"/>
      <point x="125" y="610"/>
      <point x="200" y="610" type="curve" smooth="yes"/>
      <point x="275" y="610"/>
      <point x="300" y="580"/>
      <point x="300" y="494" type="curve" smooth="yes"/>
      <point x="300" y="412"/>
      <point x="273" y="378"/>
    </contour>
  </outline>
</glyph>
<glyph name="ae" format="1">
  <advance width="790"/>
  <unicode hex="00E6"/>
  <outline>
    <contour>
      <point x="563" y="471" type="curve"/>
      <point x="670" y="471"/>
      <point x="705" y="412"/>
      <point x="705" y="304" type="curve"/>
      <point x="705" y="290"/>
      <point x="704" y="279"/>
      <point x="703" y="270" type="curve"/>
      <point x="402" y="270" type="line"/>
      <point x="402" y="412"/>
      <point x="447" y="471"/>
    </contour>
    <contour>
      <point x="718" y="27" type="curve"/>
      <point x="718" y="60" type="line"/>
      <point x="691" y="46"/>
      <point x="630" y="27"/>
      <point x="571" y="27" type="curve" smooth="yes"/>
      <point x="459" y="27"/>
      <point x="402" y="74"/>
      <point x="402" y="239" type="curve"/>
      <point x="735" y="239" type="line"/>
      <point x="737" y="258"/>
      <point x="739" y="278"/>
      <point x="739" y="301" type="curve"/>
      <point x="739" y="444"/>
      <point x="682" y="504"/>
      <point x="563" y="504" type="curve"/>
      <point x="430" y="504"/>
      <point x="366" y="430"/>
      <point x="366" y="251" type="curve" smooth="yes"/>
      <point x="366" y="62"/>
      <point x="426" y="-7"/>
      <point x="564" y="-7" type="curve" smooth="yes"/>
      <point x="633" y="-7"/>
      <point x="694" y="15"/>
    </contour>
    <contour>
      <point x="43" y="136" type="curve"/>
      <point x="43" y="40"/>
      <point x="88" y="-7"/>
      <point x="190" y="-7" type="curve"/>
      <point x="287" y="-7"/>
      <point x="356" y="34"/>
      <point x="402" y="77" type="curve"/>
      <point x="397" y="110" type="line"/>
      <point x="352" y="66"/>
      <point x="284" y="27"/>
      <point x="199" y="27" type="curve"/>
      <point x="112" y="27"/>
      <point x="78" y="61"/>
      <point x="78" y="138" type="curve"/>
      <point x="78" y="216"/>
      <point x="118" y="239"/>
      <point x="225" y="239" type="curve" smooth="yes"/>
      <point x="376" y="239" type="line"/>
      <point x="376" y="270" type="line"/>
      <point x="224" y="270" type="line" smooth="yes"/>
      <point x="97" y="270"/>
      <point x="43" y="236"/>
    </contour>
    <contour>
      <point x="396" y="330" type="line"/>
      <point x="396" y="443"/>
      <point x="362" y="504"/>
      <point x="245" y="504" type="curve" smooth="yes"/>
      <point x="177" y="504"/>
      <point x="141" y="497"/>
      <point x="94" y="486" type="curve"/>
      <point x="94" y="453" type="line"/>
      <point x="137" y="464"/>
      <point x="175" y="471"/>
      <point x="234" y="471" type="curve" smooth="yes"/>
      <point x="340" y="471"/>
      <point x="366" y="417"/>
      <point x="366" y="327" type="curve" smooth="yes"/>
      <point x="366" y="248" type="line"/>
    </contour>
    <contour>
      <point x="392" y="530" type="move" name="top"/>
    </contour>
  </outline>
</glyph>
<glyph name="eth" format="1">
  <advance width="556"/>
  <unicode hex="00F0"/>
  <outline>
    <contour>
      <point x="474" y="614" type="line"/>
      <point x="474" y="641" type="line"/>
      <point x="169" y="569" type="line"/>
      <point x="169" y="542" type="line"/>
    </contour>
    <contour>
      <point x="276" y="-7" type="curve" smooth="yes"/>
      <point x="437" y="-7"/>
      <point x="493" y="60"/>
      <point x="493" y="247" type="curve" smooth="yes"/>
      <point x="493" y="444"/>
      <point x="439" y="500"/>
      <point x="276" y="500" type="curve" smooth="yes"/>
      <point x="114" y="500"/>
      <point x="58" y="433"/>
      <point x="58" y="247" type="curve" smooth="yes"/>
      <point x="58" y="50"/>
      <point x="107" y="-7"/>
    </contour>
    <contour>
      <point x="276" y="27" type="curve" smooth="yes"/>
      <point x="131" y="27"/>
      <point x="94" y="72"/>
      <point x="94" y="247" type="curve" smooth="yes"/>
      <point x="94" y="416"/>
      <point x="137" y="467"/>
      <point x="276" y="467" type="curve" smooth="yes"/>
      <point x="420" y="467"/>
      <point x="457" y="423"/>
      <point x="457" y="247" type="curve" smooth="yes"/>
      <point x="457" y="79"/>
      <point x="414" y="27"/>
    </contour>
    <contour>
      <point x="329" y="665" type="curve"/>
      <point x="282" y="665" type="line"/>
      <point x="400" y="563"/>
      <point x="464" y="437"/>
      <point x="462" y="259" type="curve"/>
      <point x="493" y="247" type="line"/>
      <point x="493" y="457"/>
      <point x="438" y="557"/>
    </contour>
  </outline>
</glyph>
<glyph name="dcroat" format="1">
  <advance width="544"/>
  <unicode hex="0111"/>
  <outline>
    <contour>
      <point x="534" y="584" type="line"/>
      <point x="534" y="611" type="line"/>
      <point x="230" y="611" type="line"/>
      <point x="230" y="584" type="line"/>
    </contour>
    <contour>
      <point x="464" y="665" type="line"/>
      <point x="428" y="665" type="line"/>
      <point x="428" y="49" type="line"/>
      <point x="431" y="49" type="line"/>
      <point x="434" y="0" type="line"/>
      <point x="464" y="0" type="line"/>
    </contour>
    <contour>
      <point x="432" y="82" type="line"/>
      <point x="383" y="43"/>
      <point x="324" y="27"/>
      <point x="262" y="27" type="curve"/>
      <point x="149" y="27"/>
      <point x="93" y="71"/>
      <point x="93" y="243" type="curve" smooth="yes"/>
      <point x="93" y="416"/>
      <point x="155" y="459"/>
      <point x="295" y="459" type="curve"/>
      <point x="360" y="459"/>
      <point x="404" y="448"/>
      <point x="438" y="431" type="curve"/>
      <point x="451" y="458" type="line"/>
      <point x="414" y="479"/>
      <point x="367" y="493"/>
      <point x="292" y="493" type="curve"/>
      <point x="132" y="493"/>
      <point x="57" y="434"/>
      <point x="57" y="243" type="curve" smooth="yes"/>
      <point x="57" y="53"/>
      <point x="125" y="-7"/>
      <point x="251" y="-7" type="curve"/>
      <point x="320" y="-7"/>
      <point x="384" y="9"/>
      <point x="438" y="59" type="curve"/>
    </contour>
  </outline>
</glyph>
<glyph name="Hbar" format="1">
  <advance width="669"/>
  <unicode hex="0126"/>
  <outline>
    <contour>
      <point x="642" y="482" type="line"/>
      <point x="642" y="511" type="line"/>
      <point x="27" y="511" type="line"/>
      <point x="27" y="482" type="line"/>
    </contour>
    <component base="H" xOffset="8"/>
  </outline>
</glyph>
<glyph name="hbar" format="1">
  <advance width="552"/>
  <unicode hex="0127"/>
  <outline>
    <contour>
      <point x="315" y="584" type="line"/>
      <point x="315" y="611" type="line"/>
      <point x="10" y="611" type="line"/>
      <point x="10" y="584" type="line"/>
    </contour>
    <contour>
      <point x="80" y="0" type="line"/>
      <point x="116" y="0" type="line"/>
      <point x="116" y="665" type="line"/>
      <point x="80" y="665" type="line"/>
    </contour>
    <contour>
      <point x="106" y="412" type="line"/>
      <point x="168" y="448"/>
      <point x="234" y="471"/>
      <point x="300" y="471" type="curve" smooth="yes"/>
      <point x="396" y="471"/>
      <point x="440" y="429"/>
      <point x="440" y="339" type="curve" smooth="yes"/>
      <point x="440" y="0" type="line"/>
      <point x="476" y="0" type="line"/>
      <point x="476" y="342" type="line" smooth="yes"/>
      <point x="476" y="451"/>
      <point x="416" y="504"/>
      <point x="312" y="504" type="curve" smooth="yes"/>
      <point x="233" y="504"/>
      <point x="169" y="478"/>
      <point x="106" y="443" type="curve"/>
    </contour>
  </outline>
</glyph>
<glyph name="dotlessi" format="1">
  <advance width="196"/>
  <unicode hex="0131"/>
  <outline>
    <contour>
      <point x="80" y="0" type="line"/>
      <point x="116" y="0" type="line"/>
      <point x="116" y="494" type="line"/>
      <point x="80" y="494" type="line"/>
    </contour>
    <contour>
      <point x="98" y="520" type="move" name="top"/>
    </contour>
  </outline>
</glyph>
<glyph name="Lslash" format="1">
  <advance width="505"/>
  <unicode hex="0141"/>
  <outline>
    <contour>
      <point x="356" y="368" type="line"/>
      <point x="356" y="399" type="line"/>
      <point x="39" y="308" type="line"/>
      <point x="39" y="277" type="line"/>
    </contour>
    <component base="L" xOffset="22"/>
  </outline>
</glyph>
<glyph name="lslash" format="1">
  <advance width="260"/>
  <unicode hex="0142"/>
  <outline>
    <contour>
      <point x="230" y="343" type="line"/>
      <point x="230" y="374" type="line"/>
      <point x="35" y="315" type="line"/>
      <point x="35" y="284" type="line"/>
    </contour>
    <component base="l" xOffset="23"/>
  </outline>
</glyph>
<glyph name="eng" format="1">
  <advance width="553"/>
  <unicode hex="014B"/>
  <outline>
    <contour>
      <point x="80" y="0" type="line"/>
      <point x="116" y="0" type="line"/>
      <point x="116" y="447" type="line"/>
      <point x="113" y="447" type="line"/>
      <point x="110" y="494" type="line"/>
      <point x="80" y="494" type="line"/>
    </contour>
    <contour>
      <point x="476" y="5" type="curve" smooth="yes"/>
      <point x="476" y="342" type="line" smooth="yes"/>
      <point x="476" y="451"/>
      <point x="418" y="504"/>
      <point x="312" y="504" type="curve" smooth="yes"/>
      <point x="232" y="504"/>
      <point x="172" y="481"/>
      <point x="106" y="441" type="curve"/>
      <point x="106" y="409" type="line"/>
      <point x="169" y="447"/>
      <point x="233" y="471"/>
      <point x="299" y="471" type="curve" smooth="yes"/>
      <point x="395" y="471"/>
      <point x="440" y="429"/>
      <point x="440" y="339" type="curve" smooth="yes"/>
      <point x="440" y="7" type="line" smooth="yes"/>
      <point x="440" y="-84"/>
      <point x="408" y="-129"/>
      <point x="323" y="-129" type="curve"/>
      <point x="300" y="-129"/>
      <point x="280" y="-127"/>
      <point x="258" y="-123" type="curve"/>
      <point x="258" y="-156" type="line"/>
      <point x="280" y="-160"/>
      <point x="302" y="-162"/>
      <point x="332" y="-162" type="curve"/>
      <point x="429" y="-162"/>
      <point x="476" y="-107"/>
    </contour>
  </outline>
</glyph>
<glyph name="Tbar" format="1">
  <advance width="562"/>
  <unicode hex="0166"/>
  <outline>
    <contour>
      <point x="480" y="307" type="line"/>
      <point x="480" y="337" type="line"/>
      <point x="82" y="337" type="line"/>
      <point x="82" y="307" type="line"/>
    </contour>
    <component base="T" xOffset="8"/>
  </outline>
</glyph>
<glyph name="tbar" format="1">
  <advance width="381"/>
  <unicode hex="0167"/>
  <outline>
    <contour>
      <point x="354" y="273" type="line"/>
      <point x="354" y="302" type="line"/>
      <point x="34" y="302" type="line"/>
      <point x="34" y="273" type="line"/>
    </contour>
    <component base="t" xOffset="9"/>
  </outline>
</glyph>
<glyph name="uni018F" format="1">
  <advance width="611"/>
  <unicode hex="018F"/>
  <outline>
    <contour>
      <point x="551" y="314" type="curve" smooth="yes"/>
      <point x="551" y="548"/>
      <point x="476" y="637"/>
      <point x="270" y="637" type="curve"/>
      <point x="197" y="637"/>
      <point x="146" y="626"/>
      <point x="110" y="612" type="curve"/>
      <point x="110" y="578" type="line"/>
      <point x="155" y="593"/>
      <point x="200" y="602"/>
      <point x="267" y="602" type="curve" smooth="yes"/>
      <point x="448" y="602"/>
      <point x="513" y="527"/>
      <point x="513" y="314" type="curve" smooth="yes"/>
      <point x="513" y="97"/>
      <point x="446" y="28"/>
      <point x="293" y="28" type="curve"/>
      <point x="155" y="28"/>
      <point x="88" y="94"/>
      <point x="88" y="236" type="curve"/>
      <point x="88" y="264"/>
      <point x="89" y="285"/>
      <point x="91" y="301" type="curve"/>
      <point x="527" y="301" type="line"/>
      <point x="527" y="335" type="line"/>
      <point x="56" y="335" type="line"/>
      <point x="54" y="309"/>
      <point x="51" y="282"/>
      <point x="51" y="238" type="curve"/>
      <point x="51" y="71"/>
      <point x="132" y="-7"/>
      <point x="293" y="-7" type="curve"/>
      <point x="465" y="-7"/>
      <point x="551" y="73"/>
    </contour>
  </outline>
</glyph>
<glyph name="breve" format="1">
  <advance width="377"/>
  <unicode hex="02D8"/>
  <outline>
    <contour>
      <point x="327" y="683" type="curve"/>
      <point x="297" y="683" type="line"/>
      <point x="297" y="630"/>
      <point x="257" y="591"/>
      <point x="189" y="591" type="curve" smooth="yes"/>
      <point x="118" y="591"/>
      <point x="80" y="630"/>
      <point x="80" y="683" type="curve"/>
      <point x="50" y="683" type="line"/>
      <point x="50" y="615"/>
      <point x="95" y="562"/>
      <point x="189" y="562" type="curve" smooth="yes"/>
      <point x="282" y="562"/>
      <point x="327" y="615"/>
    </contour>
    <contour>
      <point x="188" y="530" type="move" name="_top"/>
    </contour>
  </outline>
</glyph>
<glyph name="dotaccent" format="1">
  <advance width="147"/>
  <unicode hex="02D9"/>
  <outline>
    <contour>
      <point x="50" y="569" type="line"/>
      <point x="97" y="569" type="line"/>
      <point x="97" y="612" type="line"/>
      <point x="50" y="612" type="line"/>
    </contour>
    <contour>
      <point x="74" y="530" type="move" name="_top"/>
    </contour>
  </outline>
</glyph>
<glyph name="ring" format="1">
  <advance width="320"/>
  <unicode hex="02DA"/>
  <outline>
    <contour>
      <point x="159" y="569" type="curve" smooth="yes"/>
      <point x="108" y="569"/>
      <point x="80" y="593"/>
      <point x="80" y="630" type="curve" smooth="yes"/>
      <point x="80" y="665"/>
      <point x="108" y="688"/>
      <point x="159" y="688" type="curve" smooth="yes"/>
      <point x="211" y="688"/>
      <point x="239" y="665"/>
      <point x="239" y="630" type="curve" smooth="yes"/>
      <point x="239" y="593"/>
      <point x="211" y="569"/>
    </contour>
    <contour>
      <point x="159" y="543" type="curve" smooth="yes"/>
      <point x="227" y="543"/>
      <point x="267" y="580"/>
      <point x="267" y="630" type="curve" smooth="yes"/>
      <point x="267" y="679"/>
      <point x="226" y="714"/>
      <point x="159" y="714" type="curve" smooth="yes"/>
      <point x="94" y="714"/>
      <point x="52" y="679"/>
      <point x="52" y="630" type="curve" smooth="yes"/>
      <point x="52" y="580"/>
      <point x="92" y="543"/>
    </contour>
    <contour>
      <point x="159" y="530" type="move" name="_top"/>
    </contour>
  </outline>
</glyph>
<glyph name="uni0312" format="1">
  <advance width="149"/>
  <unicode hex="0312"/>
  <outline>
    <contour>
      <point x="70" y="700" type="curve" smooth="yes"/>
      <point x="50" y="569" type="line"/>
      <point x="90" y="569" type="line"/>
      <point x="99" y="720" type="line"/>
      <point x="91" y="720" type="line" smooth="yes"/>
      <point x="77" y="720"/>
      <point x="72" y="714"/>
    </contour>
    <contour>
      <point x="71" y="530" type="move" name="_top"/>
    </contour>
  </outline>
</glyph>
<glyph name="pi" format="1">
  <advance width="600"/>
  <unicode hex="03C0"/>
  <outline>
    <contour>
      <point x="28" y="494" type="line"/>
      <point x="28" y="459" type="line"/>
      <point x="563" y="459" type="line"/>
      <point x="563" y="494" type="line"/>
    </contour>
    <contour>
      <point x="434" y="149" type="curve" smooth="yes"/>
      <point x="434" y="468" type="line"/>
      <point x="398" y="468" type="line"/>
      <point x="398" y="144" type="line" smooth="yes"/>
      <point x="398" y="54"/>
      <point x="451" y="0"/>
      <point x="540" y="0" type="curve" smooth="yes"/>
      <point x="556" y="0" type="line"/>
      <point x="556" y="34" type="line"/>
      <point x="544" y="34" type="line" smooth="yes"/>
      <point x="476" y="34"/>
      <point x="434" y="76"/>
    </contour>
    <contour>
      <point x="103" y="0" type="line"/>
      <point x="166" y="138"/>
      <point x="193" y="316"/>
      <point x="187" y="468" type="curve"/>
      <point x="151" y="468" type="line"/>
      <point x="161" y="320"/>
      <point x="127" y="133"/>
      <point x="63" y="0" type="curve"/>
    </contour>
  </outline>
</glyph>
<glyph name="emdash" format="1">
  <advance width="811"/>
  <unicode hex="2014"/>
  <outline>
    <contour>
      <point x="750" y="302" type="line"/>
      <point x="750" y="334" type="line"/>
      <point x="61" y="334" type="line"/>
      <point x="61" y="302" type="line"/>
    </contour>
  </outline>
</glyph>
<glyph name="dagger" format="1">
  <advance width="374"/>
  <unicode hex="2020"/>
  <outline>
    <contour>
      <point x="186" y="488" type="line"/>
      <point x="186" y="464" type="line"/>
      <point x="340" y="460" type="line"/>
      <point x="340" y="494" type="line"/>
    </contour>
    <contour>
      <point x="203" y="221" type="line"/>
      <point x="199" y="478" type="line"/>
      <point x="173" y="478" type="line"/>
      <point x="168" y="221" type="line"/>
    </contour>
    <contour>
      <point x="188" y="464" type="line"/>
      <point x="188" y="488" type="line"/>
      <point x="35" y="494" type="line"/>
      <point x="35" y="460" type="line"/>
    </contour>
    <contour>
      <point x="173" y="473" type="line"/>
      <point x="199" y="473" type="line"/>
      <point x="203" y="627" type="line"/>
      <point x="168" y="627" type="line"/>
    </contour>
  </outline>
</glyph>
<glyph name="daggerdbl" format="1">
  <advance width="414"/>
  <unicode hex="2021"/>
  <outline>
    <contour>
      <point x="206" y="488" type="line"/>
      <point x="206" y="464" type="line"/>
      <point x="360" y="460" type="line"/>
      <point x="360" y="494" type="line"/>
    </contour>
    <contour>
      <point x="219" y="264" type="line"/>
      <point x="219" y="478" type="line"/>
      <point x="193" y="478" type="line"/>
      <point x="193" y="264" type="line"/>
    </contour>
    <contour>
      <point x="208" y="464" type="line"/>
      <point x="208" y="488" type="line"/>
      <point x="55" y="494" type="line"/>
      <point x="55" y="460" type="line"/>
    </contour>
    <contour>
      <point x="193" y="473" type="line"/>
      <point x="219" y="473" type="line"/>
      <point x="223" y="627" type="line"/>
      <point x="188" y="627" type="line"/>
    </contour>
    <contour>
      <point x="208" y="257" type="line"/>
      <point x="208" y="281" type="line"/>
      <point x="55" y="285" type="line"/>
      <point x="55" y="251" type="line"/>
    </contour>
    <contour>
      <point x="206" y="281" type="line"/>
      <point x="206" y="257" type="line"/>
      <point x="360" y="251" type="line"/>
      <point x="360" y="285" type="line"/>
    </contour>
    <contour>
      <point x="219" y="272" type="line"/>
      <point x="192" y="272" type="line"/>
      <point x="188" y="118" type="line"/>
      <point x="223" y="118" type="line"/>
    </contour>
  </outline>
</glyph>
<glyph name="perthousand" format="1">
  <advance width="925"/>
  <unicode hex="2030"/>
  <outline>
    <contour>
      <point x="158" y="604" type="curve"/>
      <point x="222" y="604"/>
      <point x="245" y="571"/>
      <point x="245" y="475" type="curve"/>
      <point x="245" y="381"/>
      <point x="222" y="348"/>
      <point x="158" y="348" type="curve"/>
      <point x="95" y="348"/>
      <point x="72" y="381"/>
      <point x="72" y="475" type="curve"/>
      <point x="72" y="571"/>
      <point x="95" y="604"/>
    </contour>
    <contour>
      <point x="158" y="320" type="curve"/>
      <point x="244" y="320"/>
      <point x="276" y="362"/>
      <point x="276" y="475" type="curve"/>
      <point x="276" y="590"/>
      <point x="244" y="631"/>
      <point x="158" y="631" type="curve"/>
      <point x="73" y="631"/>
      <point x="41" y="590"/>
      <point x="41" y="475" type="curve"/>
      <point x="41" y="362"/>
      <point x="73" y="320"/>
    </contour>
    <contour>
      <point x="477" y="281" type="curve"/>
      <point x="540" y="281"/>
      <point x="563" y="247"/>
      <point x="563" y="152" type="curve"/>
      <point x="563" y="58"/>
      <point x="540" y="24"/>
      <point x="477" y="24" type="curve"/>
      <point x="413" y="24"/>
      <point x="390" y="58"/>
      <point x="390" y="152" type="curve"/>
      <point x="390" y="247"/>
      <point x="413" y="281"/>
    </contour>
    <contour>
      <point x="477" y="-3" type="curve"/>
      <point x="562" y="-3"/>
      <point x="594" y="38"/>
      <point x="594" y="152" type="curve"/>
      <point x="594" y="266"/>
      <point x="562" y="308"/>
      <point x="477" y="308" type="curve"/>
      <point x="391" y="308"/>
      <point x="359" y="266"/>
      <point x="359" y="152" type="curve"/>
      <point x="359" y="38"/>
      <point x="391" y="-3"/>
    </contour>
    <contour>
      <point x="767" y="281" type="curve"/>
      <point x="831" y="281"/>
      <point x="853" y="247"/>
      <point x="853" y="152" type="curve"/>
      <point x="853" y="58"/>
      <point x="831" y="24"/>
      <point x="767" y="24" type="curve"/>
      <point x="703" y="24"/>
      <point x="680" y="58"/>
      <point x="680" y="152" type="curve"/>
      <point x="680" y="247"/>
      <point x="703" y="281"/>
    </contour>
    <contour>
      <point x="767" y="-3" type="curve"/>
      <point x="852" y="-3"/>
      <point x="884" y="38"/>
      <point x="884" y="152" type="curve"/>
      <point x="884" y="266"/>
      <point x="852" y="308"/>
      <point x="767" y="308" type="curve"/>
      <point x="681" y="308"/>
      <point x="649" y="266"/>
      <point x="649" y="152" type="curve"/>
      <point x="649" y="38"/>
      <point x="681" y="-3"/>
    </contour>
    <component base="fraction" xOffset="250"/>
  </outline>
</glyph>
<glyph name="fraction" format="1">
  <advance width="128"/>
  <unicode hex="2044"/>
  <outline>
    <contour>
      <point x="-69" y="0" type="line"/>
      <point x="231" y="627" type="line"/>
      <point x="198" y="627" type="line"/>
      <point x="-102" y="0" type="line"/>
    </contour>
  </outline>
</glyph>
<glyph name="uni2075" format="1">
  <advance width="302"/>
  <unicode hex="2075"/>
  <outline>
    <contour>
      <point x="141" y="266" type="curve"/>
      <point x="225" y="266"/>
      <point x="265" y="300"/>
      <point x="265" y="375" type="curve" smooth="yes"/>
      <point x="265" y="454"/>
      <point x="216" y="472"/>
      <point x="145" y="472" type="curve" smooth="yes"/>
      <point x="124" y="472"/>
      <point x="103" y="470"/>
      <point x="88" y="467" type="curve"/>
      <point x="88" y="599" type="line"/>
      <point x="241" y="599" type="line"/>
      <point x="241" y="627" type="line"/>
      <point x="57" y="627" type="line"/>
      <point x="57" y="439" type="line"/>
      <point x="81" y="443"/>
      <point x="106" y="445"/>
      <point x="133" y="445" type="curve" smooth="yes"/>
      <point x="194" y="445"/>
      <point x="233" y="434"/>
      <point x="233" y="375" type="curve" smooth="yes"/>
      <point x="233" y="317"/>
      <point x="206" y="296"/>
      <point x="135" y="296" type="curve"/>
      <point x="98" y="296"/>
      <point x="64" y="299"/>
      <point x="39" y="306" type="curve"/>
      <point x="39" y="277" type="line"/>
      <point x="59" y="270"/>
      <point x="93" y="266"/>
    </contour>
  </outline>
</glyph>
<glyph name="uni2076" format="1">
  <advance width="339"/>
  <unicode hex="2076"/>
  <outline>
    <contour>
      <point x="45" y="439" type="curve"/>
      <point x="45" y="311"/>
      <point x="84" y="266"/>
      <point x="175" y="266" type="curve"/>
      <point x="255" y="266"/>
      <point x="303" y="311"/>
      <point x="303" y="389" type="curve"/>
      <point x="303" y="466"/>
      <point x="267" y="496"/>
      <point x="198" y="496" type="curve"/>
      <point x="144" y="496"/>
      <point x="106" y="480"/>
      <point x="69" y="459" type="curve"/>
      <point x="69" y="434" type="line"/>
      <point x="104" y="454"/>
      <point x="143" y="469"/>
      <point x="186" y="469" type="curve"/>
      <point x="246" y="469"/>
      <point x="273" y="448"/>
      <point x="273" y="388" type="curve"/>
      <point x="273" y="328"/>
      <point x="240" y="294"/>
      <point x="173" y="294" type="curve"/>
      <point x="104" y="294"/>
      <point x="76" y="331"/>
      <point x="76" y="437" type="curve"/>
      <point x="76" y="558"/>
      <point x="105" y="605"/>
      <point x="207" y="605" type="curve"/>
      <point x="226" y="605"/>
      <point x="243" y="604"/>
      <point x="257" y="602" type="curve"/>
      <point x="257" y="629" type="line"/>
      <point x="249" y="631"/>
      <point x="227" y="633"/>
      <point x="207" y="633" type="curve"/>
      <point x="86" y="633"/>
      <point x="45" y="573"/>
    </contour>
  </outline>
</glyph>
<glyph name="uni2077" format="1">
  <advance width="293"/>
  <unicode hex="2077"/>
  <outline>
    <contour>
      <point x="267" y="599" type="line"/>
      <point x="267" y="627" type="line"/>
      <point x="32" y="627" type="line"/>
      <point x="32" y="598" type="line"/>
      <point x="232" y="598" type="line"/>
      <point x="40" y="270" type="line"/>
      <point x="75" y="270" type="line"/>
    </contour>
  </outline>
</glyph>
<glyph name="uni2078" format="1">
  <advance width="344"/>
  <unicode hex="2078"/>
  <outline>
    <contour>
      <point x="171" y="266" type="curve"/>
      <point x="260" y="266"/>
      <point x="300" y="297"/>
      <point x="300" y="365" type="curve"/>
      <point x="300" y="415"/>
      <point x="271" y="447"/>
      <point x="217" y="453" type="curve"/>
      <point x="270" y="461"/>
      <point x="293" y="494"/>
      <point x="293" y="542" type="curve"/>
      <point x="293" y="605"/>
      <point x="256" y="633"/>
      <point x="171" y="633" type="curve"/>
      <point x="89" y="633"/>
      <point x="51" y="603"/>
      <point x="51" y="540" type="curve"/>
      <point x="51" y="495"/>
      <point x="74" y="460"/>
      <point x="126" y="453" type="curve"/>
      <point x="70" y="446"/>
      <point x="44" y="409"/>
      <point x="44" y="360" type="curve"/>
      <point x="44" y="295"/>
      <point x="82" y="266"/>
    </contour>
    <contour>
      <point x="171" y="606" type="curve"/>
      <point x="237" y="606"/>
      <point x="264" y="586"/>
      <point x="264" y="538" type="curve"/>
      <point x="264" y="496"/>
      <point x="245" y="465"/>
      <point x="170" y="465" type="curve"/>
      <point x="99" y="465"/>
      <point x="81" y="496"/>
      <point x="81" y="537" type="curve"/>
      <point x="81" y="585"/>
      <point x="106" y="606"/>
    </contour>
    <contour>
      <point x="170" y="439" type="curve"/>
      <point x="239" y="439"/>
      <point x="270" y="417"/>
      <point x="270" y="367" type="curve"/>
      <point x="270" y="316"/>
      <point x="240" y="294"/>
      <point x="171" y="294" type="curve"/>
      <point x="104" y="294"/>
      <point x="74" y="316"/>
      <point x="74" y="364" type="curve"/>
      <point x="74" y="415"/>
      <point x="104" y="439"/>
    </contour>
  </outline>
</glyph>
<glyph name="uni20BA" format="1">
  <advance width="569"/>
  <unicode hex="20BA"/>
  <outline>
    <contour>
      <point x="496" y="274" type="line"/>
      <point x="496" y="111"/>
      <point x="427" y="35"/>
      <point x="279" y="35" type="curve" smooth="yes"/>
      <point x="154" y="35" type="line"/>
      <point x="154" y="627" type="line"/>
      <point x="117" y="627" type="line"/>
      <point x="117" y="0" type="line"/>
      <point x="279" y="0" type="line" smooth="yes"/>
      <point x="450" y="0"/>
      <point x="534" y="90"/>
      <point x="534" y="274" type="curve"/>
    </contour>
    <contour>
      <point x="47" y="375" type="line"/>
      <point x="47" y="342" type="line"/>
      <point x="425" y="459" type="line"/>
      <point x="425" y="492" type="line"/>
    </contour>
    <contour>
      <point x="47" y="238" type="line"/>
      <point x="47" y="205" type="line"/>
      <point x="425" y="322" type="line"/>
      <point x="425" y="355" type="line"/>
    </contour>
    <contour>
      <point x="321" y="645" type="move" name="top"/>
    </contour>
  </outline>
</glyph>
<glyph name="arrowup" format="1">
  <advance width="674"/>
  <unicode hex="2191"/>
  <outline>
    <contour>
      <point x="651" y="434" type="line"/>
      <point x="651" y="474" type="line"/>
      <point x="336" y="646" type="line"/>
      <point x="24" y="474" type="line"/>
      <point x="24" y="434" type="line"/>
      <point x="253" y="561" type="line" smooth="yes"/>
      <point x="273" y="572"/>
      <point x="304" y="588"/>
      <point x="319" y="598" type="curve"/>
      <point x="321" y="597" type="line"/>
      <point x="319" y="571"/>
      <point x="319" y="553"/>
      <point x="319" y="497" type="curve" smooth="yes"/>
      <point x="319" y="0" type="line"/>
      <point x="355" y="0" type="line"/>
      <point x="355" y="497" type="line" smooth="yes"/>
      <point x="355" y="553"/>
      <point x="355" y="571"/>
      <point x="353" y="597" type="curve"/>
      <point x="355" y="598" type="line"/>
      <point x="370" y="587"/>
      <point x="399" y="571"/>
      <point x="419" y="561" type="curve" smooth="yes"/>
    </contour>
  </outline>
</glyph>
<glyph name="infinity" format="1">
  <advance width="945"/>
  <unicode hex="221E"/>
  <outline>
    <contour>
      <point x="709" y="138" type="curve" smooth="yes"/>
      <point x="817" y="138"/>
      <point x="891" y="210"/>
      <point x="891" y="315" type="curve" smooth="yes"/>
      <point x="891" y="421"/>
      <point x="818" y="493"/>
      <point x="709" y="493" type="curve" smooth="yes"/>
      <point x="659" y="493"/>
      <point x="613" y="475"/>
      <point x="578" y="441" type="curve" smooth="yes"/>
      <point x="472" y="340" type="line"/>
      <point x="367" y="441" type="line" smooth="yes"/>
      <point x="331" y="476"/>
      <point x="285" y="493"/>
      <point x="235" y="493" type="curve" smooth="yes"/>
      <point x="127" y="493"/>
      <point x="54" y="421"/>
      <point x="54" y="316" type="curve" smooth="yes"/>
      <point x="54" y="211"/>
      <point x="126" y="138"/>
      <point x="235" y="138" type="curve" smooth="yes"/>
      <point x="285" y="138"/>
      <point x="330" y="155"/>
      <point x="367" y="191" type="curve" smooth="yes"/>
      <point x="472" y="290" type="line"/>
      <point x="578" y="191" type="line" smooth="yes"/>
      <point x="614" y="157"/>
      <point x="659" y="138"/>
    </contour>
    <contour>
      <point x="497" y="315" type="line"/>
      <point x="603" y="417" type="line" smooth="yes"/>
      <point x="631" y="444"/>
      <point x="669" y="459"/>
      <point x="709" y="459" type="curve" smooth="yes"/>
      <point x="795" y="459"/>
      <point x="854" y="402"/>
      <point x="854" y="315" type="curve" smooth="yes"/>
      <point x="854" y="230"/>
      <point x="795" y="173"/>
      <point x="709" y="173" type="curve" smooth="yes"/>
      <point x="669" y="173"/>
      <point x="631" y="186"/>
      <point x="603" y="214" type="curve" smooth="yes"/>
    </contour>
    <contour>
      <point x="342" y="417" type="curve" smooth="yes"/>
      <point x="446" y="315" type="line"/>
      <point x="342" y="214" type="line" smooth="yes"/>
      <point x="314" y="185"/>
      <point x="276" y="173"/>
      <point x="235" y="173" type="curve" smooth="yes"/>
      <point x="150" y="173"/>
      <point x="91" y="230"/>
      <point x="91" y="315" type="curve" smooth="yes"/>
      <point x="91" y="402"/>
      <point x="150" y="459"/>
      <point x="235" y="459" type="curve" smooth="yes"/>
      <point x="276" y="459"/>
      <point x="314" y="445"/>
    </contour>
  </outline>
</glyph>
<glyph name="lozenge" format="1">
  <advance width="565"/>
  <unicode hex="25CA"/>
  <outline>
    <contour>
      <point x="284" y="-108" type="line"/>
      <point x="60" y="316" type="line"/>
      <point x="282" y="754" type="line"/>
      <point x="505" y="314" type="line"/>
    </contour>
    <contour>
      <point x="269" y="-152" type="line"/>
      <point x="298" y="-152" type="line"/>
      <point x="545" y="315" type="line"/>
      <point x="298" y="795" type="line"/>
      <point x="267" y="795" type="line"/>
      <point x="20" y="315" type="line"/>
    </contour>
  </outline>
</glyph>
<glyph name="caron.alt" format="1">
  <advance width="457"/>
  <outline>
    <contour>
      <point x="62" y="531" type="curve" smooth="yes"/>
      <point x="82" y="665" type="line"/>
      <point x="42" y="665" type="line"/>
      <point x="34" y="511" type="line"/>
      <point x="41" y="511" type="line" smooth="yes"/>
      <point x="55" y="511"/>
      <point x="60" y="517"/>
    </contour>
    <contour>
      <point x="42" y="665" type="move" name="_caronalt"/>
    </contour>
  </outline>
</glyph>
<glyph name="grave.uc" format="1">
  <advance width="253"/>
  <outline>
    <contour>
      <point x="52" y="673" type="line"/>
      <point x="167" y="569" type="line"/>
      <point x="203" y="569" type="line"/>
      <point x="104" y="673" type="line"/>
    </contour>
    <contour>
      <point x="153" y="530" type="move" name="_top"/>
    </contour>
  </outline>
</glyph>
<glyph name="macron.uc" format="1">
  <advance width="336"/>
  <outline>
    <contour>
      <point x="286" y="574" type="line"/>
      <point x="286" y="604" type="line"/>
      <point x="50" y="604" type="line"/>
      <point x="50" y="574" type="line"/>
    </contour>
    <contour>
      <point x="169" y="530" type="move" name="_top"/>
    </contour>
  </outline>
</glyph>
<glyph name="nine.osf" format="1">
  <advance width="514"/>
  <outline>
    <contour>
      <point x="455" y="191" type="curve"/>
      <point x="455" y="427"/>
      <point x="396" y="504"/>
      <point x="251" y="504" type="curve"/>
      <point x="121" y="504"/>
      <point x="44" y="428"/>
      <point x="44" y="292" type="curve"/>
      <point x="44" y="152"/>
      <point x="107" y="99"/>
      <point x="225" y="99" type="curve"/>
      <point x="311" y="99"/>
      <point x="375" y="129"/>
      <point x="430" y="170" type="curve"/>
      <point x="430" y="202" type="line"/>
      <point x="373" y="159"/>
      <point x="307" y="132"/>
      <point x="239" y="132" type="curve"/>
      <point x="128" y="132"/>
      <point x="81" y="174"/>
      <point x="81" y="293" type="curve"/>
      <point x="81" y="405"/>
      <point x="139" y="469"/>
      <point x="251" y="469" type="curve"/>
      <point x="374" y="469"/>
      <point x="417" y="401"/>
      <point x="417" y="193" type="curve"/>
      <point x="417" y="-30"/>
      <point x="369" y="-123"/>
      <point x="194" y="-123" type="curve"/>
      <point x="158" y="-123"/>
      <point x="131" y="-120"/>
      <point x="114" y="-117" type="curve"/>
      <point x="114" y="-152" type="line"/>
      <point x="128" y="-155"/>
      <point x="162" y="-159"/>
      <point x="194" y="-159" type="curve"/>
      <point x="392" y="-159"/>
      <point x="455" y="-50"/>
    </contour>
  </outline>
</glyph>
<glyph name="nine.tf" format="1">
  <advance width="500"/>
  <outline>
    <contour>
      <point x="444" y="334" type="curve"/>
      <point x="444" y="563"/>
      <point x="386" y="638"/>
      <point x="243" y="638" type="curve"/>
      <point x="117" y="638"/>
      <point x="40" y="564"/>
      <point x="40" y="432" type="curve"/>
      <point x="40" y="295"/>
      <point x="101" y="243"/>
      <point x="217" y="243" type="curve"/>
      <point x="299" y="243"/>
      <point x="362" y="271"/>
      <point x="418" y="313" type="curve"/>
      <point x="418" y="345" type="line"/>
      <point x="362" y="302"/>
      <point x="298" y="276"/>
      <point x="232" y="276" type="curve"/>
      <point x="124" y="276"/>
      <point x="77" y="317"/>
      <point x="77" y="433" type="curve"/>
      <point x="77" y="541"/>
      <point x="134" y="603"/>
      <point x="243" y="603" type="curve"/>
      <point x="364" y="603"/>
      <point x="406" y="537"/>
      <point x="406" y="336" type="curve"/>
      <point x="406" y="119"/>
      <point x="359" y="29"/>
      <point x="187" y="29" type="curve"/>
      <point x="153" y="29"/>
      <point x="126" y="32"/>
      <point x="109" y="35" type="curve"/>
      <point x="109" y="0" type="line"/>
      <point x="123" y="-3"/>
      <point x="158" y="-7"/>
      <point x="187" y="-7" type="curve"/>
      <point x="382" y="-7"/>
      <point x="444" y="99"/>
    </contour>
  </outline>
</glyph>
<glyph name="ogonek.alt" format="1">
  <advance width="327"/>
  <outline>
    <contour>
      <point x="248" y="43" type="curve"/>
      <point x="229" y="57" type="line"/>
      <point x="157" y="30"/>
      <point x="68" y="-24"/>
      <point x="68" y="-112" type="curve"/>
      <point x="68" y="-156"/>
      <point x="96" y="-194"/>
      <point x="164" y="-194" type="curve"/>
      <point x="193" y="-194"/>
      <point x="222" y="-188"/>
      <point x="241" y="-183" type="curve"/>
      <point x="241" y="-154" type="line"/>
      <point x="223" y="-159"/>
      <point x="194" y="-165"/>
      <point x="168" y="-165" type="curve"/>
      <point x="124" y="-165"/>
      <point x="99" y="-142"/>
      <point x="99" y="-107" type="curve"/>
      <point x="99" y="-34"/>
      <point x="180" y="14"/>
    </contour>
    <contour>
      <point x="248" y="43" type="move" name="_ogonekalt"/>
    </contour>
  </outline>
</glyph>
<glyph name="ring.uc" format="1">
  <advance width="320"/>
  <outline>
    <contour>
      <point x="159" y="588" type="curve" smooth="yes"/>
      <point x="108" y="588"/>
      <point x="80" y="608"/>
      <point x="80" y="638" type="curve" smooth="yes"/>
      <point x="80" y="666"/>
      <point x="108" y="684"/>
      <point x="159" y="684" type="curve" smooth="yes"/>
      <point x="211" y="684"/>
      <point x="239" y="666"/>
      <point x="239" y="638" type="curve" smooth="yes"/>
      <point x="239" y="608"/>
      <point x="211" y="588"/>
    </contour>
    <contour>
      <point x="159" y="562" type="curve" smooth="yes"/>
      <point x="227" y="562"/>
      <point x="267" y="594"/>
      <point x="267" y="638" type="curve" smooth="yes"/>
      <point x="267" y="680"/>
      <point x="226" y="710"/>
      <point x="159" y="710" type="curve" smooth="yes"/>
      <point x="94" y="710"/>
      <point x="52" y="680"/>
      <point x="52" y="638" type="curve" smooth="yes"/>
      <point x="52" y="594"/>
      <point x="92" y="562"/>
    </contour>
    <contour>
      <point x="159" y="530" type="move" name="_top"/>
    </contour>
  </outline>
</glyph>
<glyph name="six.tf" format="1">
  <advance width="500"/>
  <outline>
    <contour>
      <point x="53" y="297" type="curve"/>
      <point x="53" y="74"/>
      <point x="116" y="-7"/>
      <point x="257" y="-7" type="curve"/>
      <point x="387" y="-7"/>
      <point x="464" y="71"/>
      <point x="464" y="208" type="curve"/>
      <point x="464" y="342"/>
      <point x="405" y="393"/>
      <point x="293" y="393" type="curve"/>
      <point x="204" y="393"/>
      <point x="140" y="364"/>
      <point x="78" y="324" type="curve"/>
      <point x="78" y="292" type="line"/>
      <point x="142" y="334"/>
      <point x="209" y="360"/>
      <point x="278" y="360" type="curve"/>
      <point x="381" y="360"/>
      <point x="427" y="320"/>
      <point x="427" y="207" type="curve"/>
      <point x="427" y="94"/>
      <point x="369" y="29"/>
      <point x="257" y="29" type="curve"/>
      <point x="140" y="29"/>
      <point x="90" y="100"/>
      <point x="90" y="295" type="curve"/>
      <point x="90" y="513"/>
      <point x="138" y="603"/>
      <point x="309" y="603" type="curve"/>
      <point x="344" y="603"/>
      <point x="370" y="600"/>
      <point x="387" y="597" type="curve"/>
      <point x="387" y="632" type="line"/>
      <point x="373" y="635"/>
      <point x="337" y="638"/>
      <point x="309" y="638" type="curve"/>
      <point x="115" y="638"/>
      <point x="53" y="532"/>
    </contour>
  </outline>
</glyph>
<glyph name="three.osf" format="1">
  <advance width="458"/>
  <outline>
    <contour>
      <point x="267" y="187" type="line"/>
      <point x="316" y="201"/>
      <point x="376" y="245"/>
      <point x="376" y="345" type="curve"/>
      <point x="376" y="447"/>
      <point x="324" y="504"/>
      <point x="215" y="504" type="curve"/>
      <point x="146" y="504"/>
      <point x="96" y="494"/>
      <point x="59" y="482" type="curve"/>
      <point x="59" y="448" type="line"/>
      <point x="91" y="459"/>
      <point x="147" y="469"/>
      <point x="210" y="469" type="curve"/>
      <point x="301" y="469"/>
      <point x="340" y="426"/>
      <point x="340" y="341" type="curve"/>
      <point x="340" y="236"/>
      <point x="265" y="197"/>
      <point x="192" y="197" type="curve"/>
      <point x="117" y="197" type="line"/>
      <point x="117" y="164" type="line"/>
      <point x="210" y="164" type="line"/>
      <point x="327" y="164"/>
      <point x="370" y="115"/>
      <point x="370" y="25" type="curve"/>
      <point x="370" y="-69"/>
      <point x="313" y="-123"/>
      <point x="198" y="-123" type="curve"/>
      <point x="119" y="-123"/>
      <point x="75" y="-116"/>
      <point x="36" y="-105" type="curve"/>
      <point x="36" y="-140" type="line"/>
      <point x="70" y="-151"/>
      <point x="113" y="-159"/>
      <point x="201" y="-159" type="curve"/>
      <point x="337" y="-159"/>
      <point x="406" y="-92"/>
      <point x="406" y="24" type="curve"/>
      <point x="406" y="127"/>
      <point x="352" y="180"/>
      <point x="267" y="185" type="curve"/>
    </contour>
  </outline>
</glyph>
<glyph name="two.osf" format="1">
  <advance width="444"/>
  <outline>
    <contour>
      <point x="399" y="0" type="line"/>
      <point x="399" y="34" type="line"/>
      <point x="86" y="34" type="line"/>
      <point x="291" y="214" type="line" smooth="yes"/>
      <point x="352" y="267"/>
      <point x="381" y="312"/>
      <point x="381" y="373" type="curve"/>
      <point x="381" y="459"/>
      <point x="327" y="504"/>
      <point x="216" y="504" type="curve"/>
      <point x="162" y="504"/>
      <point x="106" y="494"/>
      <point x="60" y="477" type="curve"/>
      <point x="60" y="443" type="line"/>
      <point x="103" y="459"/>
      <point x="164" y="470"/>
      <point x="212" y="470" type="curve"/>
      <point x="304" y="470"/>
      <point x="346" y="437"/>
      <point x="346" y="369" type="curve"/>
      <point x="346" y="318"/>
      <point x="317" y="280"/>
      <point x="264" y="232" type="curve" smooth="yes"/>
      <point x="38" y="33" type="line"/>
      <point x="38" y="0" type="line"/>
    </contour>
  </outline>
</glyph>
<glyph name="two.tf" format="1">
  <advance width="500"/>
  <outline>
    <contour>
      <point x="442" y="0" type="line"/>
      <point x="442" y="35" type="line"/>
      <point x="90" y="35" type="line"/>
      <point x="329" y="292" type="line" smooth="yes"/>
      <point x="386" y="353"/>
      <point x="425" y="409"/>
      <point x="425" y="486" type="curve"/>
      <point x="425" y="579"/>
      <point x="371" y="638"/>
      <point x="253" y="638" type="curve"/>
      <point x="191" y="638"/>
      <point x="133" y="630"/>
      <point x="78" y="616" type="curve"/>
      <point x="78" y="581" type="line"/>
      <point x="127" y="595"/>
      <point x="198" y="603"/>
      <point x="251" y="603" type="curve"/>
      <point x="345" y="603"/>
      <point x="388" y="556"/>
      <point x="388" y="484" type="curve"/>
      <point x="388" y="415"/>
      <point x="349" y="361"/>
      <point x="299" y="308" type="curve" smooth="yes"/>
      <point x="44" y="35" type="line"/>
      <point x="44" y="0" type="line"/>
    </contour>
  </outline>
</glyph>
